<?xml version="1.0" standalone="no"?>
<!DOCTYPE svg PUBLIC "-//W3C//DTD SVG 20010904//EN"
 "http://www.w3.org/TR/2001/REC-SVG-20010904/DTD/svg10.dtd">
<svg version="1.0" xmlns="http://www.w3.org/2000/svg"
 width="1440.000000pt" height="2300.000000pt" viewBox="0 0 1440.000000 2300.000000"
 preserveAspectRatio="xMidYMid meet">
<metadata>
Created by potrace 1.16, written by Peter Selinger 2001-2019
</metadata>
<g transform="translate(0.000000,2300.000000) scale(0.100000,-0.100000)"
fill="#000000" stroke="none">
<path d="M1840 17859 c-183 -7 -213 -14 -361 -89 -154 -78 -379 -238 -593
-424 l-56 -49 -68 18 c-136 36 -254 114 -267 177 -4 16 -14 32 -23 35 -22 9
-70 -49 -85 -104 -8 -33 -22 -53 -47 -71 -68 -50 -160 -146 -160 -168 0 -23
65 -89 148 -149 32 -23 52 -44 52 -56 0 -20 29 -80 53 -111 23 -29 44 -21 68
30 32 64 103 111 229 152 l99 33 73 -65 c266 -236 584 -440 763 -489 77 -21
10976 -21 11050 0 175 50 395 184 665 405 47 38 103 86 125 107 l40 38 80 -20
c44 -11 109 -34 144 -51 72 -34 148 -103 153 -139 2 -16 11 -25 25 -27 26 -4
64 49 83 114 8 27 22 47 41 58 15 9 53 39 83 67 52 48 56 54 56 97 0 40 -5 49
-42 85 -24 21 -62 52 -85 68 -26 18 -45 41 -49 57 -15 60 -64 132 -90 132 -7
0 -18 -15 -24 -34 -24 -72 -130 -143 -279 -185 l-74 -20 -71 62 c-308 271
-575 443 -777 501 -52 15 -501 17 -5385 19 -2931 1 -5403 -1 -5494 -4z m-118
-82 c-82 -42 -137 -89 -163 -139 -39 -76 3 -96 46 -22 35 60 116 112 242 154
97 33 100 33 323 38 296 6 291 7 207 -43 -41 -23 -99 -71 -142 -116 -146 -153
-205 -337 -177 -554 14 -111 45 -191 110 -289 53 -79 161 -174 242 -214 41
-20 50 -28 35 -31 -11 -2 -121 -1 -245 2 -191 4 -237 8 -305 27 -158 43 -238
93 -306 191 -14 20 -19 22 -32 11 -41 -35 44 -133 168 -194 l80 -39 -54 7
c-155 19 -394 151 -674 373 -205 163 -240 208 -219 280 14 47 42 74 192 195
315 252 563 392 705 395 26 0 22 -4 -33 -32z m1118 22 c180 -29 361 -165 444
-332 36 -74 65 -172 53 -183 -4 -4 -21 8 -39 26 -86 84 -234 160 -356 181
-125 22 -360 -15 -377 -59 -9 -24 54 -118 118 -178 108 -101 228 -144 401
-144 l99 0 -43 -46 c-127 -138 -116 -350 23 -469 l42 -36 -295 4 c-321 5 -345
9 -470 72 -140 71 -255 202 -307 352 -23 67 -27 94 -27 198 -1 101 3 132 23
194 52 159 167 289 324 366 125 61 242 78 387 54z m481 -36 c185 -92 317 -261
360 -464 13 -59 7 -265 -8 -280 -5 -5 -24 9 -46 35 -40 49 -109 91 -173 107
-42 11 -43 13 -49 58 -20 153 -56 255 -123 353 -44 64 -150 161 -215 198 -31
17 -57 34 -57 37 0 3 51 4 113 2 110 -4 116 -5 198 -46z m8049 43 c0 -2 -30
-21 -66 -42 -86 -51 -199 -169 -247 -261 -43 -82 -77 -205 -77 -279 l0 -52
-37 -7 c-60 -11 -152 -65 -191 -112 -44 -52 -50 -46 -59 64 -15 204 70 417
219 547 58 50 170 114 233 133 36 10 225 18 225 9z m400 -7 c216 -35 411 -207
486 -429 29 -85 26 -292 -5 -379 -72 -198 -217 -335 -426 -404 -52 -17 -97
-20 -355 -24 l-295 -5 45 40 c25 22 59 66 75 98 26 52 30 69 30 144 0 99 -25
167 -81 221 -19 18 -34 37 -34 41 0 4 42 8 93 8 165 0 281 42 389 139 60 55
128 147 128 174 0 19 -79 52 -154 66 -122 22 -245 10 -358 -35 -73 -30 -180
-99 -222 -143 -17 -17 -34 -31 -39 -31 -13 0 2 77 28 141 56 140 165 254 309
324 126 61 242 78 386 54z m647 0 c88 -12 219 -61 287 -108 25 -17 57 -52 72
-76 41 -70 83 -53 49 20 -23 47 -94 108 -169 144 -67 33 -55 39 36 20 150 -32
417 -198 700 -435 115 -96 138 -124 138 -172 0 -61 -18 -83 -195 -228 -214
-176 -466 -332 -610 -377 -54 -17 -145 -32 -145 -24 0 2 26 14 58 26 108 40
196 124 190 181 -4 32 -29 33 -44 2 -37 -74 -143 -138 -299 -182 -70 -20 -110
-23 -325 -27 l-245 -4 55 31 c134 74 232 177 296 307 95 195 83 461 -28 637
-63 101 -163 197 -250 242 -27 13 -48 27 -48 29 0 10 400 5 477 -6z m-4521
-246 c3 -10 10 -26 15 -35 13 -26 11 -38 -7 -38 -8 0 -36 -16 -61 -35 -55 -42
-80 -35 -29 9 32 27 37 35 31 59 -12 44 38 83 51 40z m628 -2 c4 -5 9 -31 13
-57 3 -26 14 -55 24 -65 10 -10 16 -25 13 -34 -7 -18 -18 -19 -44 -5 -16 8
-23 4 -45 -24 -43 -56 -217 -168 -229 -147 -3 5 33 38 82 74 48 36 98 77 111
91 l23 25 -21 27 c-24 30 -22 58 6 100 15 24 56 33 67 15z m-246 -18 c-2 -11
-56 -45 -141 -89 -160 -82 -174 -93 -158 -122 16 -29 14 -34 -11 -30 -18 2
-24 10 -26 40 -3 31 2 40 33 64 34 26 281 153 298 154 5 0 7 -8 5 -17z m-1588
-23 c0 -14 -24 -27 -80 -45 -134 -43 -209 -76 -225 -101 -19 -30 -39 -20 -33
17 4 27 49 56 152 95 120 47 186 59 186 34z m409 -14 c6 -8 14 -37 18 -65 6
-56 12 -59 66 -36 42 17 77 20 77 5 0 -6 -52 -36 -115 -67 -92 -45 -118 -54
-128 -44 -9 10 -4 19 26 43 32 26 37 35 37 71 0 23 -7 51 -15 61 -8 11 -15 26
-15 33 0 17 34 17 49 -1z m252 -42 c15 -27 30 -60 34 -74 7 -22 6 -23 -9 -11
-9 8 -18 12 -20 10 -2 -2 5 -83 15 -179 21 -196 16 -235 -29 -270 -24 -20 -35
-21 -95 -15 -51 5 -86 2 -138 -12 -69 -17 -71 -17 -107 2 -20 11 -42 31 -49
45 -7 14 -17 102 -23 195 -5 94 -13 212 -17 264 -6 88 -5 93 13 89 23 -4 28
-33 44 -272 15 -227 29 -266 95 -266 36 0 55 15 55 45 0 52 88 133 130 120 22
-7 40 -54 40 -106 0 -33 3 -39 20 -39 11 0 24 8 27 17 4 10 -6 121 -22 248
-16 127 -26 239 -22 249 11 27 29 15 58 -40z m135 15 c8 -17 22 -49 30 -71 13
-37 13 -39 -3 -27 -17 15 -17 -12 6 -301 6 -71 4 -104 -6 -129 -7 -19 -15 -32
-18 -29 -12 11 -63 554 -54 571 14 25 26 21 45 -14z m779 -26 c-4 -10 -10 -30
-12 -45 -4 -23 -2 -26 16 -21 23 6 27 -7 11 -38 -13 -23 -46 -25 -54 -3 -17
43 4 124 32 124 10 0 12 -5 7 -17z m-2172 -29 c3 -3 -10 -37 -29 -74 -36 -71
-43 -124 -21 -154 11 -15 17 -17 35 -7 23 12 42 8 42 -10 0 -5 -16 -26 -35
-48 -29 -32 -35 -46 -35 -85 0 -43 24 -86 48 -86 10 0 57 51 101 108 46 59 73
64 119 20 78 -73 118 -83 221 -52 63 18 58 31 -18 43 -97 15 -95 56 5 81 70
18 112 40 178 91 27 22 54 39 61 39 19 0 44 -33 51 -67 8 -40 -11 -51 -40 -24
l-22 21 -55 -40 c-30 -23 -55 -45 -57 -50 -4 -12 57 -28 157 -39 86 -9 108
-19 98 -44 -4 -10 -29 -16 -89 -19 -49 -3 -127 -18 -192 -37 -177 -50 -258
-42 -316 32 -30 38 -57 32 -97 -23 -64 -87 -80 -102 -110 -98 -38 4 -61 49
-73 142 -5 43 -15 95 -21 116 -16 52 -5 114 36 199 32 67 43 79 58 65z m645
-16 c9 -9 17 -8 37 2 22 12 27 11 45 -5 42 -38 16 -81 -29 -48 -23 18 -29 18
-47 6 -12 -7 -27 -11 -35 -8 -19 7 -41 43 -34 55 9 14 49 12 63 -2z m1137 -8
c15 -16 15 -22 5 -35 -7 -8 -25 -14 -40 -13 -16 1 -35 -4 -44 -11 -13 -11 -20
-11 -41 3 -29 19 -32 38 -10 56 12 10 22 10 40 2 18 -8 26 -8 35 4 17 19 34
18 55 -6z m695 -44 c0 -3 -5 -17 -10 -32 -14 -36 -6 -61 15 -44 12 10 15 9 15
-8 0 -26 -26 -53 -44 -46 -16 6 -28 45 -21 66 20 56 26 68 35 68 5 0 10 -2 10
-4z m-2060 -33 c0 -9 9 -26 20 -38 19 -20 19 -23 4 -35 -32 -27 -63 14 -50 66
7 27 26 33 26 7z m1564 -52 c17 -18 26 -36 23 -45 -4 -9 1 -32 9 -53 22 -51 7
-96 -51 -153 -25 -24 -45 -52 -45 -62 0 -24 38 -48 76 -48 37 0 142 50 173 84
l23 25 -38 7 c-58 10 -74 21 -74 52 0 40 35 92 62 92 12 0 39 -16 59 -36 l38
-37 46 28 c26 15 48 25 49 23 1 -1 10 -15 19 -30 24 -38 42 -35 89 12 45 44
58 49 58 21 0 -24 25 -45 45 -37 9 3 15 18 15 40 0 41 15 55 29 27 20 -37 13
-88 -15 -110 -32 -25 -40 -26 -78 -6 -27 14 -31 14 -51 -5 -35 -33 -77 -36
-111 -6 l-31 25 -31 -19 c-17 -11 -38 -34 -45 -53 -28 -66 -151 -146 -236
-155 -55 -5 -95 21 -104 66 l-6 29 -68 -33 c-98 -48 -257 -92 -268 -74 -3 4
34 24 81 44 145 63 364 199 364 228 0 4 -14 36 -31 69 -22 45 -29 68 -24 90 8
36 14 36 49 0z m-164 7 c-1 -7 -11 -33 -24 -57 l-23 -44 23 -34 c31 -46 23
-88 -22 -129 -86 -79 -140 -30 -97 88 l16 46 -26 32 c-27 32 -37 90 -16 90 19
0 69 -34 69 -47 0 -29 21 -20 51 22 32 45 49 56 49 33z m-1651 -7 c7 -5 25 -4
41 2 22 8 32 8 45 -3 23 -19 16 -56 -10 -51 -11 2 -38 4 -60 6 -59 3 -62 4
-69 21 -12 30 20 46 53 25z m971 -62 c0 -27 -25 -34 -55 -15 -26 17 -34 51
-12 59 21 7 67 -22 67 -44z m-6664 16 c20 -30 11 -58 -22 -74 -22 -9 -31 -9
-50 4 -26 17 -33 62 -12 83 21 21 66 14 84 -13z m13362 3 c13 -13 16 -57 4
-74 -26 -38 -92 -14 -92 34 0 35 16 52 50 52 14 0 31 -5 38 -12z m-6868 -32
c0 -18 7 -39 15 -46 19 -16 19 -29 0 -37 -19 -7 -55 24 -55 48 0 27 18 69 30
69 5 0 10 -15 10 -34z m-3568 -94 c170 -75 214 -305 85 -440 -137 -144 -372
-99 -454 86 -33 76 -31 143 8 220 69 139 222 196 361 134z m7603 7 c75 -28
122 -71 157 -144 39 -83 38 -146 -3 -232 -48 -100 -135 -155 -249 -155 -247
-2 -363 302 -182 476 44 42 124 75 184 76 21 0 63 -9 93 -21z m-2465 -131 c0
-7 -4 -18 -8 -24 -9 -14 -77 -29 -114 -25 -17 1 -44 -10 -77 -34 -27 -20 -67
-39 -88 -42 -49 -7 -40 2 64 65 54 33 90 48 105 45 13 -2 39 3 58 11 43 19 60
20 60 4z m-1760 -12 c0 -17 -119 -66 -161 -66 -47 0 -31 20 42 51 71 31 119
37 119 15z m-652 -93 c-3 -19 -130 -72 -182 -76 -62 -4 -33 25 59 58 105 39
128 42 123 18z"/>
<path d="M1483 17460 c-41 -25 -63 -59 -70 -110 -5 -37 -8 -40 -37 -40 -60 0
-256 -108 -256 -141 0 -32 173 -128 246 -137 35 -4 44 -9 44 -24 0 -36 28 -85
64 -113 65 -50 173 -30 216 39 51 81 11 197 -76 226 l-36 12 38 18 c125 57
132 214 12 276 -39 20 -107 17 -145 -6z m-45 -236 c47 -53 9 -138 -61 -138
-37 0 -168 61 -174 81 -2 6 20 24 49 40 104 59 145 63 186 17z m99 -50 c-3 -3
-12 -4 -19 -1 -8 3 -5 6 6 6 11 1 17 -2 13 -5z"/>
<path d="M2294 17116 c-26 -26 -34 -42 -34 -70 0 -110 120 -164 193 -88 33 35
42 72 27 116 -16 50 -53 76 -107 76 -38 0 -50 -5 -79 -34z"/>
<path d="M2617 16965 c-44 -15 -83 -48 -103 -87 -18 -35 -18 -111 0 -146 37
-70 123 -112 191 -93 159 44 179 248 31 317 -59 27 -67 28 -119 9z"/>
<path d="M11938 17129 c-74 -55 -43 -188 47 -205 72 -13 135 43 135 122 0 28
-8 44 -34 70 -28 28 -41 34 -77 34 -28 -1 -54 -8 -71 -21z"/>
<path d="M11665 16967 c-52 -21 -73 -36 -93 -69 -45 -75 -35 -159 26 -215 77
-70 173 -64 242 15 36 40 40 50 40 99 0 30 -7 67 -15 82 -20 39 -69 78 -113
91 -44 12 -49 12 -87 -3z"/>
<path d="M12789 17457 c-48 -32 -71 -81 -66 -140 5 -59 30 -95 84 -123 l41
-21 -39 -17 c-103 -46 -119 -190 -28 -259 33 -24 64 -32 121 -29 43 3 106 66
119 118 9 36 15 44 35 44 60 0 259 107 259 140 0 32 -200 140 -259 140 -20 0
-25 6 -31 40 -18 108 -148 166 -236 107z m346 -225 c17 -8 48 -26 69 -40 l39
-24 -59 -34 c-105 -60 -163 -62 -198 -9 -19 29 -20 52 -2 84 28 51 81 59 151
23z m-218 -58 c-3 -3 -12 -4 -19 -1 -8 3 -5 6 6 6 11 1 17 -2 13 -5z"/>
<path d="M8480 17496 c0 -8 5 -18 10 -21 6 -3 10 1 10 9 0 8 -4 18 -10 21 -5
3 -10 -1 -10 -9z"/>
<path d="M7184 17046 c-15 -12 -17 -18 -8 -33 18 -29 41 -27 58 5 8 16 12 32
9 36 -11 10 -38 7 -59 -8z"/>
<path d="M8220 17090 c0 -5 7 -10 16 -10 8 0 12 5 9 10 -3 6 -10 10 -16 10 -5
0 -9 -4 -9 -10z"/>
<path d="M7806 17088 c-20 -28 -21 -58 -2 -58 7 0 25 10 40 21 26 20 26 22 10
40 -22 24 -29 24 -48 -3z"/>
<path d="M3340 16947 c-26 -9 -41 -24 -60 -58 l-24 -47 19 -42 c21 -47 57 -70
111 -70 51 0 104 53 104 104 0 87 -70 140 -150 113z"/>
<path d="M10973 16953 c-28 -5 -72 -49 -79 -80 -18 -69 35 -143 102 -143 55 0
90 24 109 73 15 40 15 48 2 80 -22 51 -77 80 -134 70z"/>
<path d="M6503 16385 c-28 -34 -43 -44 -62 -43 -20 3 -27 -5 -44 -45 -21 -51
-15 -77 10 -39 13 18 25 22 69 22 45 0 59 5 88 30 57 51 58 120 0 120 -15 0
-36 -15 -61 -45z m67 -15 c0 -5 -13 -16 -30 -25 -33 -17 -38 -11 -13 17 17 19
43 24 43 8z"/>
<path d="M7731 16353 c-30 -32 -52 -47 -66 -45 -15 2 -25 -6 -38 -33 -9 -20
-17 -42 -17 -50 0 -22 18 -18 25 6 6 18 12 20 42 14 46 -8 97 10 128 46 38 46
30 109 -14 109 -8 0 -35 -21 -60 -47z m63 -12 c7 -11 -12 -26 -44 -36 l-25 -7
24 26 c26 28 36 32 45 17z"/>
<path d="M8549 16360 c-9 -5 -28 -27 -44 -49 -22 -33 -32 -40 -51 -35 -20 5
-26 0 -46 -40 -24 -50 -17 -74 12 -39 14 18 25 22 48 17 68 -14 152 46 152
106 0 40 -36 60 -71 40z m31 -60 c0 -11 -33 -30 -51 -30 -8 0 -5 7 6 20 19 21
45 27 45 10z"/>
<path d="M7345 16206 c-72 -28 -136 -55 -143 -59 -13 -9 -17 -47 -4 -47 4 0
67 24 141 53 101 40 136 59 142 75 5 12 5 23 1 25 -4 2 -66 -19 -137 -47z"/>
<path d="M6466 16225 c-14 -38 -3 -127 39 -319 24 -112 48 -235 51 -275 7 -78
19 -91 30 -35 10 55 -1 161 -36 339 -17 88 -37 191 -43 229 -12 68 -28 93 -41
61z"/>
<path d="M8180 16191 c-97 -37 -128 -53 -140 -74 -8 -14 -12 -28 -9 -31 3 -3
70 21 150 52 118 48 145 63 147 80 4 29 -2 28 -148 -27z"/>
<path d="M6300 16200 c-19 -27 -20 -32 -7 -77 15 -49 47 -209 74 -361 11 -63
12 -87 4 -95 -11 -11 -74 -14 -116 -6 -25 5 -32 -30 -15 -71 9 -22 9 -34 -3
-56 -19 -37 -62 -77 -107 -100 -45 -23 -167 -24 -227 -1 -27 10 -45 12 -49 6
-20 -32 109 -84 211 -84 56 0 79 5 113 25 44 25 93 88 112 145 8 25 19 35 50
44 85 25 93 80 50 322 -30 168 -32 184 -17 207 14 24 13 29 -11 79 -14 29 -29
53 -33 53 -4 0 -17 -13 -29 -30z"/>
<path d="M7676 16163 c-5 -37 5 -106 43 -303 28 -140 53 -272 56 -293 3 -21
10 -35 14 -33 17 11 19 109 5 203 -25 166 -89 466 -100 470 -7 2 -14 -17 -18
-44z"/>
<path d="M4390 16158 c-25 -24 -58 -48 -75 -54 -17 -6 -31 -19 -33 -30 -2 -11
-19 -28 -38 -39 -47 -25 -121 -106 -144 -158 -29 -64 -27 -169 5 -233 28 -57
89 -122 140 -149 19 -11 35 -28 37 -40 2 -12 15 -24 33 -30 17 -6 47 -27 68
-48 21 -20 46 -37 55 -37 9 0 34 17 57 39 22 21 54 43 70 48 21 7 29 16 28 30
-2 14 8 25 32 36 86 41 160 145 171 243 13 106 -54 231 -153 289 -37 21 -51
35 -47 46 3 12 -6 21 -33 32 -21 8 -56 34 -78 56 -21 23 -42 41 -45 41 -3 0
-25 -19 -50 -42z m-53 -135 c3 -7 -15 -22 -39 -34 -160 -80 -203 -254 -93
-376 23 -27 63 -59 89 -71 48 -24 57 -38 31 -48 -19 -8 -91 35 -134 78 -80 80
-104 204 -57 303 28 61 59 95 123 135 48 31 73 35 80 13z m283 -15 c67 -41
115 -102 136 -175 36 -124 -29 -258 -157 -324 -32 -16 -43 -18 -55 -8 -12 10
-6 17 38 41 69 38 93 61 123 122 62 123 3 268 -132 328 -29 13 -40 23 -37 33
9 22 24 19 84 -17z m-79 -33 c173 -59 217 -262 82 -374 -50 -41 -113 -61 -194
-61 -173 0 -300 151 -245 293 48 126 212 191 357 142z"/>
<path d="M4415 15837 c-4 -15 2 -40 15 -65 12 -22 24 -66 27 -97 8 -80 28 -65
27 21 -1 104 -53 208 -69 141z"/>
<path d="M6115 16151 c-151 -60 -165 -67 -165 -91 0 -11 3 -20 8 -20 11 0 205
75 248 96 25 12 40 27 42 42 2 12 0 22 -5 21 -4 -1 -62 -22 -128 -48z"/>
<path d="M6895 16149 c-71 -27 -132 -53 -136 -57 -4 -4 -10 -18 -14 -31 -6
-20 -4 -23 11 -18 30 9 275 105 279 109 1 1 6 13 9 26 10 30 2 29 -149 -29z"/>
<path d="M7511 16152 c-19 -27 -19 -32 -6 -78 32 -115 86 -427 75 -438 -12
-12 -87 -14 -112 -2 -25 12 -36 -39 -16 -74 15 -26 14 -29 -17 -72 -63 -87
-154 -119 -266 -95 -35 8 -72 17 -81 22 -14 5 -18 2 -18 -13 0 -23 65 -54 154
-72 68 -14 129 -7 173 20 35 21 84 88 103 140 10 29 20 38 59 50 82 27 88 76
40 335 -29 160 -29 168 -13 187 15 16 16 22 6 36 -7 9 -19 32 -27 50 -19 39
-28 40 -54 4z"/>
<path d="M8476 16153 c-16 -58 -14 -87 8 -189 35 -151 76 -390 76 -436 0 -44
16 -50 30 -12 18 46 11 114 -40 364 -27 136 -50 257 -50 269 0 25 -17 28 -24
4z"/>
<path d="M7033 16058 c-22 -6 -38 -19 -49 -39 -20 -40 -14 -44 27 -20 21 12
43 18 57 14 20 -5 18 -8 -23 -34 -51 -32 -51 -54 -2 -43 61 13 143 83 117 99
-30 18 -98 31 -127 23z"/>
<path d="M8277 16064 c-4 -4 -7 -18 -7 -31 0 -14 -6 -23 -15 -23 -9 0 -15 9
-15 21 0 27 -33 22 -38 -6 -9 -47 -52 -63 -52 -20 0 32 -18 33 -26 1 -11 -47
-1 -71 32 -74 18 -2 36 3 43 12 8 10 22 13 41 10 41 -9 72 25 68 73 -3 35 -17
51 -31 37z"/>
<path d="M7430 16025 c-6 -8 -9 -19 -5 -26 8 -12 -14 -31 -27 -23 -4 3 -8 14
-8 25 0 29 -20 23 -33 -11 -17 -45 -57 -52 -57 -9 0 30 -18 22 -25 -11 -13
-58 22 -94 62 -64 10 7 35 14 55 14 44 0 68 27 68 77 0 37 -13 49 -30 28z"/>
<path d="M6206 16014 c-3 -9 -6 -24 -6 -35 0 -10 -7 -19 -15 -19 -9 0 -15 9
-15 21 0 28 -34 21 -38 -9 -3 -22 -34 -46 -46 -35 -3 3 -6 18 -6 32 -1 25 -1
26 -16 6 -8 -11 -14 -35 -12 -55 3 -30 7 -35 31 -38 16 -2 35 2 44 10 8 7 27
11 42 10 36 -3 51 9 60 49 12 58 -6 107 -23 63z"/>
<path d="M6777 15964 c-13 -14 -7 -45 19 -95 20 -36 27 -65 27 -105 0 -30 3
-54 6 -54 20 0 31 31 31 86 0 83 -56 195 -83 168z"/>
<path d="M9735 15925 c-25 -24 -34 -65 -15 -65 6 0 10 5 10 10 0 15 49 32 73
24 17 -5 15 -9 -18 -28 -54 -30 -59 -51 -10 -42 65 13 142 75 118 96 -14 13
-75 30 -105 30 -17 0 -39 -10 -53 -25z"/>
<path d="M7013 15855 c-50 -21 -86 -103 -40 -92 12 3 34 9 48 12 30 8 109 -11
109 -25 0 -6 -15 -10 -32 -10 -54 -1 -150 -45 -182 -86 -52 -63 -106 -65 -142
-5 -24 40 -32 39 -40 -5 -5 -25 -1 -47 10 -70 25 -53 21 -86 -16 -121 -87 -81
-187 -128 -371 -174 -107 -28 -144 -32 -305 -36 -333 -10 -564 41 -779 172
-55 33 -79 43 -87 35 -16 -16 117 -138 199 -182 183 -96 513 -141 785 -108
199 25 399 93 525 180 53 36 100 103 109 155 5 24 13 35 24 35 9 1 28 7 41 14
21 11 26 10 47 -11 18 -18 34 -23 72 -23 28 0 54 6 59 13 19 24 23 67 10 106
-14 38 -13 40 10 46 67 16 174 23 234 15 63 -10 64 -9 86 18 13 15 22 31 20
36 -2 6 -35 15 -73 22 -84 15 -147 37 -194 68 -48 32 -88 38 -127 21z m-18
-245 c21 -23 19 -24 -23 -9 -18 6 -29 15 -26 20 9 15 30 10 49 -11z"/>
<path d="M8353 15854 c-11 -29 6 -117 37 -181 33 -71 37 -93 18 -93 -21 0 -76
37 -92 62 -12 18 -46 173 -46 209 0 5 -7 9 -15 9 -22 0 -29 -61 -16 -150 14
-93 10 -112 -29 -140 -36 -26 -82 -26 -105 0 -16 17 -19 38 -19 125 -1 57 -4
107 -8 111 -4 4 -15 -9 -23 -29 -10 -25 -27 -41 -52 -53 -67 -31 -95 -56 -119
-108 -38 -81 -35 -86 44 -86 44 0 75 5 88 15 27 21 34 19 34 -10 0 -37 42 -75
81 -75 40 0 110 40 128 73 l13 25 45 -34 c79 -61 133 -42 141 49 4 46 -1 69
-25 129 -17 40 -36 94 -43 121 -13 48 -26 59 -37 31z m-313 -209 l0 -35 -61 0
c-71 0 -70 11 5 46 28 13 52 24 54 24 1 0 2 -16 2 -35z"/>
<path d="M6640 15820 c-11 -27 -11 -32 6 -45 30 -23 52 -18 69 16 9 17 15 32
13 34 -12 9 -49 25 -61 25 -8 0 -20 -14 -27 -30z"/>
<path d="M10017 15793 c-3 -28 1 -47 18 -73 41 -64 67 -122 58 -130 -4 -5 -26
-5 -48 -1 -31 5 -41 11 -43 29 -5 35 -28 25 -41 -19 -14 -45 -30 -56 -60 -40
-17 10 -19 16 -11 37 17 45 -1 47 -41 5 -43 -45 -67 -54 -125 -49 -36 3 -39 5
-39 33 0 17 -4 31 -8 33 -4 2 -27 -6 -50 -17 -130 -63 -394 -97 -554 -71 -120
20 -190 47 -239 96 -43 41 -48 44 -67 31 -42 -27 -59 -63 -61 -121 -1 -32 -6
-60 -11 -64 -46 -33 -158 -104 -194 -121 -28 -15 -40 -26 -34 -32 12 -12 119
13 173 41 34 18 87 69 107 104 7 14 15 14 68 1 52 -12 61 -12 71 1 10 12 20
12 80 -3 50 -13 109 -17 219 -17 162 0 280 18 394 59 l64 23 24 -29 c29 -34
81 -39 136 -13 31 15 36 15 65 0 40 -21 69 -20 81 2 26 45 27 45 59 28 17 -9
47 -16 67 -16 29 0 37 5 45 26 14 35 12 137 -2 171 -19 45 -77 133 -87 133 -5
0 -11 -17 -14 -37z m-1207 -227 c0 -7 -49 0 -58 9 -2 2 2 13 8 26 l12 22 19
-24 c10 -13 19 -28 19 -33z"/>
<path d="M5688 15777 c-31 -25 -53 -73 -38 -82 5 -3 19 -1 31 6 26 14 124 8
187 -12 l44 -13 -79 -28 c-73 -27 -158 -38 -182 -23 -6 3 -11 15 -11 26 0 25
-22 24 -45 -1 -29 -32 -139 -61 -235 -63 -103 -1 -159 21 -209 83 -22 27 -40
40 -57 40 -51 0 -94 -82 -79 -150 6 -25 1 -33 -44 -68 -27 -22 -79 -56 -115
-76 -75 -42 -85 -61 -28 -54 75 10 181 76 225 139 14 20 16 20 68 5 49 -15 55
-15 66 0 10 14 20 14 87 3 114 -19 231 3 322 61 18 11 25 10 52 -10 42 -31
101 -23 223 30 131 58 146 62 211 54 55 -6 57 -5 72 25 25 48 22 51 -55 51
-76 0 -198 27 -270 60 -59 26 -107 26 -141 -3z m-578 -163 c0 -7 -8 -10 -20
-7 -28 7 -34 21 -19 39 12 14 14 14 26 -2 7 -10 13 -23 13 -30z"/>
<path d="M5846 15521 c-80 -34 -111 -52 -117 -68 -6 -17 -5 -23 5 -23 26 0
220 87 230 103 24 37 -11 34 -118 -12z"/>
<path d="M5570 15473 c0 -5 -4 -14 -9 -21 -7 -12 -14 -11 -40 2 -31 16 -31 16
-51 -16 l-20 -33 25 -22 c32 -28 50 -29 68 -2 12 17 19 19 35 10 32 -17 46
-13 65 18 17 29 17 30 -12 50 -29 21 -61 28 -61 14z"/>
<path d="M7941 15416 c-58 -22 -88 -39 -94 -54 -6 -12 -8 -25 -5 -28 11 -10
183 56 200 77 18 22 16 40 -5 38 -7 -1 -50 -15 -96 -33z"/>
<path d="M10062 15415 c-18 -39 -15 -51 18 -65 27 -11 32 -11 45 6 21 28 18
50 -10 68 -33 22 -40 20 -53 -9z"/>
<path d="M5028 15353 c-100 -42 -130 -65 -111 -84 13 -13 226 76 234 98 7 19
3 34 -9 32 -4 -1 -55 -21 -114 -46z"/>
<path d="M8826 15336 c-70 -30 -101 -48 -107 -64 -5 -12 -4 -24 0 -27 8 -4
112 38 201 83 38 19 54 53 23 51 -10 -1 -63 -20 -117 -43z"/>
<path d="M10200 15321 c-25 -9 -87 -33 -139 -52 -72 -26 -95 -39 -102 -58 -5
-13 -7 -26 -5 -29 9 -9 294 109 300 124 15 39 10 40 -54 15z"/>
<path d="M6747 15268 c-115 -42 -140 -56 -148 -76 -5 -14 -8 -27 -5 -29 8 -8
281 99 294 115 13 17 16 42 5 42 -5 -1 -70 -24 -146 -52z"/>
<path d="M11346 14799 c-19 -16 -38 -39 -41 -49 -5 -15 -12 -18 -34 -14 -26 5
-30 2 -51 -41 -24 -50 -19 -73 10 -38 14 18 24 21 53 16 51 -8 120 27 141 71
20 42 20 51 0 70 -22 23 -39 20 -78 -15z m30 -55 c-34 -25 -52 -17 -26 11 17
18 27 22 34 14 8 -7 5 -15 -8 -25z"/>
<path d="M6246 14797 c-14 -14 -26 -36 -26 -48 l0 -22 23 21 c23 22 77 31 77
13 0 -5 -13 -14 -30 -21 -41 -17 -43 -55 -2 -46 32 8 101 54 116 78 16 26 -2
37 -71 44 -57 6 -63 5 -87 -19z"/>
<path d="M6593 14795 c-12 -8 -31 -31 -43 -50 -17 -28 -26 -34 -44 -29 -25 6
-50 -22 -62 -70 -7 -31 10 -36 25 -7 9 15 18 18 54 14 50 -6 94 13 126 53 50
63 6 132 -56 89z m37 -55 c0 -11 -33 -30 -51 -30 -8 0 -5 7 6 20 19 21 45 27
45 10z"/>
<path d="M10989 14781 c-42 -42 -38 -69 5 -36 21 16 58 20 69 8 4 -3 -11 -17
-33 -30 -39 -24 -48 -37 -32 -47 15 -9 81 17 117 46 50 42 46 62 -16 76 -71
17 -77 16 -110 -17z"/>
<path d="M8930 14761 c-25 -9 -85 -33 -133 -51 -69 -26 -91 -39 -98 -58 -5
-14 -8 -27 -6 -29 3 -3 288 104 293 110 1 1 5 12 8 25 9 27 -2 28 -64 3z"/>
<path d="M5505 14685 c-91 -37 -132 -59 -139 -74 -5 -12 -7 -23 -4 -26 6 -6
266 91 284 106 17 14 18 49 2 48 -7 0 -71 -25 -143 -54z"/>
<path d="M9501 14681 c-40 -43 -48 -81 -22 -102 12 -10 27 -19 34 -22 17 -6
-14 -39 -83 -91 -38 -28 -50 -42 -38 -44 24 -5 108 41 143 77 17 18 40 36 53
41 22 9 32 50 12 50 -5 0 -10 15 -10 33 0 41 -20 81 -43 85 -10 2 -30 -10 -46
-27z m52 -51 c5 -21 -1 -24 -27 -14 -17 7 -10 34 9 34 7 0 15 -9 18 -20z"/>
<path d="M3269 14654 c-18 -20 -53 -45 -76 -55 -29 -12 -41 -23 -37 -32 3 -9
-10 -24 -39 -40 -177 -104 -215 -318 -81 -466 20 -23 57 -54 81 -68 29 -16 42
-31 39 -40 -4 -9 8 -20 37 -32 23 -10 58 -35 76 -55 19 -20 39 -36 45 -36 6 0
29 19 53 42 23 23 57 47 75 53 22 7 32 16 30 27 -2 11 9 23 28 33 48 25 106
81 137 133 25 43 28 56 28 142 0 86 -3 99 -27 140 -31 51 -65 86 -123 125 -22
15 -40 34 -40 43 0 10 -13 21 -33 28 -18 5 -52 29 -75 52 -24 23 -47 42 -53
42 -6 0 -26 -16 -45 -36z m281 -190 c149 -135 110 -367 -79 -463 -34 -18 -41
-19 -51 -5 -15 17 -17 15 44 45 101 50 160 162 137 264 -6 28 -23 68 -36 88
-23 33 -102 97 -122 97 -4 0 -14 4 -22 9 -12 8 -12 12 -2 25 12 14 17 13 52
-5 22 -11 57 -36 79 -55z m-334 51 c2 -5 -15 -19 -38 -29 -208 -96 -208 -359
0 -454 20 -9 39 -18 41 -19 2 -1 -2 -9 -9 -17 -24 -30 -141 52 -192 134 -9 14
-21 51 -27 82 -24 114 32 226 149 297 35 22 71 24 76 6z m185 -41 c185 -52
239 -257 99 -377 -108 -92 -291 -85 -388 14 -43 44 -62 90 -62 151 0 62 27
115 82 162 73 63 164 79 269 50z"/>
<path d="M3280 14328 c-24 -40 -25 -52 -3 -84 9 -14 23 -47 32 -74 17 -52 31
-63 42 -33 6 16 -12 89 -36 147 -7 17 -5 18 22 13 33 -6 53 7 53 34 0 20 -20
29 -61 29 -22 0 -34 -8 -49 -32z"/>
<path d="M6307 14627 c-17 -31 -17 -36 -3 -68 8 -19 34 -128 56 -244 l41 -210
-21 -17 c-21 -17 -80 -25 -93 -12 -3 4 3 19 15 34 26 36 21 59 -21 87 -63 43
-175 22 -206 -38 -21 -40 -20 -63 3 -53 24 10 62 8 75 -5 13 -13 -18 -25 -122
-46 -101 -21 -301 -18 -345 5 -55 28 -64 54 -109 295 -24 127 -47 229 -52 228
-25 -5 -24 -69 1 -225 42 -265 42 -236 1 -253 -41 -17 -114 -20 -149 -6 -24 9
-48 30 -85 75 -13 14 -28 26 -35 26 -6 0 -39 -29 -72 -65 -65 -69 -100 -85
-148 -66 -39 15 -63 60 -77 141 -21 129 -40 148 -82 83 -13 -20 -36 -41 -51
-46 -24 -7 -31 -4 -52 20 l-24 28 -11 -28 c-15 -39 -14 -45 14 -101 28 -56 25
-69 -32 -114 -54 -42 -109 -68 -210 -98 -77 -24 -106 -27 -233 -28 -175 -1
-271 21 -417 95 -79 40 -93 45 -93 29 0 -24 101 -115 162 -146 171 -87 496
-86 685 1 109 49 193 142 193 212 0 28 6 35 39 53 22 11 44 27 49 37 8 13 11
7 17 -28 23 -151 59 -199 150 -199 43 0 60 5 84 26 l30 25 29 -21 c40 -29 152
-41 152 -16 0 14 7 16 50 10 54 -7 127 13 151 42 10 12 17 8 46 -26 44 -51
105 -70 230 -70 105 0 211 19 314 56 l69 25 26 -20 c56 -44 130 -34 168 23 29
45 29 103 2 246 -45 239 -45 240 -29 269 14 24 14 29 -13 69 -15 23 -32 42
-39 42 -6 0 -19 -15 -28 -33z m-1036 -514 c7 -16 15 -31 17 -35 5 -11 -57 12
-64 23 -6 10 13 39 26 39 4 0 13 -12 21 -27z"/>
<path d="M11061 14606 c-25 -39 -26 -49 -7 -79 8 -12 17 -44 21 -72 3 -27 19
-108 35 -180 16 -71 33 -152 38 -179 l10 -48 -43 -19 c-63 -28 -145 -9 -145
32 0 17 5 20 23 16 18 -5 26 1 45 33 12 21 22 41 22 43 0 3 -39 8 -87 12 -91
7 -213 36 -319 75 -60 21 -63 22 -98 5 -35 -17 -85 -89 -72 -103 3 -3 24 1 45
8 45 14 124 9 187 -14 l39 -14 -27 -10 c-121 -48 -313 -82 -460 -82 -165 0
-292 41 -356 114 -50 57 -73 49 -127 -49 -35 -62 -50 -75 -90 -75 -69 0 -104
55 -150 239 -17 69 -36 126 -42 128 -24 8 -25 -63 -2 -157 l23 -93 -23 -18
c-25 -21 -111 -49 -148 -49 -13 0 -32 5 -43 12 -23 15 -28 11 -36 -29 -5 -24
-1 -36 16 -53 19 -19 30 -21 65 -17 67 10 154 46 171 73 l16 24 28 -59 c33
-69 68 -96 122 -95 30 1 47 9 72 33 l32 31 45 -19 c24 -10 65 -22 91 -25 41
-6 47 -5 53 14 5 15 12 19 23 15 158 -63 481 -35 714 61 73 30 126 45 160 47
l52 2 -3 -50 c-2 -39 3 -57 19 -78 19 -24 28 -27 78 -26 74 0 120 17 146 52
30 40 25 122 -18 340 -33 163 -34 180 -20 202 14 21 13 26 -11 60 -14 21 -25
42 -25 46 0 20 -20 7 -39 -25z m-1172 -521 c22 -38 20 -40 -30 -24 -45 16 -45
16 -24 39 24 27 30 26 54 -15z"/>
<path d="M11280 14605 c-16 -43 -12 -87 25 -253 19 -86 42 -212 51 -279 17
-121 26 -145 38 -100 14 52 3 149 -39 365 -25 126 -45 241 -45 255 0 36 -18
43 -30 12z"/>
<path d="M8936 14605 c-3 -9 -6 -26 -6 -37 0 -28 -34 -19 -38 10 -5 31 -16 27
-33 -10 -18 -42 -49 -50 -49 -14 0 28 -9 33 -28 14 -19 -19 -14 -65 9 -82 21
-14 42 -12 67 7 7 6 30 11 50 11 42 1 64 31 60 80 -3 33 -22 45 -32 21z"/>
<path d="M6516 14584 c-11 -30 -6 -95 19 -220 14 -69 29 -168 34 -220 9 -98
16 -119 31 -94 16 25 11 118 -15 280 -14 85 -28 181 -32 213 -6 56 -24 76 -37
41z"/>
<path d="M10644 14545 c-184 -64 -194 -69 -194 -100 l0 -23 165 55 c163 54
192 71 183 107 -2 10 -43 -1 -154 -39z"/>
<path d="M6088 14514 c-99 -40 -139 -61 -144 -76 -3 -11 -3 -22 -1 -25 3 -3
70 20 149 50 129 50 143 58 146 81 2 14 0 26 -5 26 -4 -1 -70 -26 -145 -56z"/>
<path d="M8218 14514 c-100 -40 -139 -61 -143 -75 -4 -11 -4 -23 -2 -26 3 -3
70 19 149 49 132 50 143 56 146 81 2 15 0 27 -5 26 -4 0 -70 -25 -145 -55z"/>
<path d="M9835 14502 c-28 -6 -65 -42 -65 -64 0 -18 2 -18 22 -4 12 9 38 16
58 16 39 -1 34 -7 -31 -43 -23 -13 -29 -21 -21 -29 14 -14 76 6 120 39 47 35
41 63 -18 78 -25 6 -54 9 -65 7z"/>
<path d="M4331 14412 c-138 -48 -165 -61 -173 -81 -12 -33 -5 -36 44 -21 213
67 329 123 312 151 -7 12 3 15 -183 -49z"/>
<path d="M7601 14443 c-6 -12 -11 -29 -11 -37 0 -23 -31 -20 -37 4 -8 30 -30
24 -36 -9 -6 -29 -30 -46 -49 -35 -5 3 -7 17 -4 30 8 29 -9 32 -24 5 -14 -26
-13 -64 2 -79 17 -17 53 -15 69 4 8 10 21 13 36 9 13 -3 32 -1 43 5 23 12 42
74 31 103 l-8 21 -12 -21z"/>
<path d="M9014 14404 c-10 -41 3 -110 41 -204 19 -48 35 -93 35 -99 0 -33 -83
7 -106 51 -12 23 -54 214 -54 245 0 2 -4 3 -10 3 -23 0 -28 -71 -13 -172 l16
-101 -36 -34 c-43 -39 -85 -43 -113 -12 -15 17 -19 38 -20 125 -1 58 -5 108
-8 112 -10 9 -26 -18 -26 -44 0 -16 -12 -26 -47 -39 -62 -24 -117 -75 -138
-130 -25 -68 -17 -78 58 -73 44 2 72 10 94 26 l31 22 5 -28 c20 -102 135 -104
203 -4 21 31 22 31 40 11 33 -37 83 -61 110 -55 56 14 70 132 27 226 -24 52
-48 121 -58 168 -8 39 -22 42 -31 6z m-294 -244 c0 -24 -6 -33 -26 -40 -37
-15 -107 -13 -102 2 4 11 103 67 121 68 4 0 7 -14 7 -30z"/>
<path d="M5817 14369 c-4 -13 5 -41 24 -74 23 -40 29 -64 29 -108 0 -67 15
-74 30 -16 14 52 5 111 -28 172 -27 51 -46 60 -55 26z"/>
<path d="M7950 14284 c-15 -39 -13 -47 25 -84 19 -19 35 -40 35 -48 0 -33
-178 -83 -390 -107 -158 -19 -475 -22 -575 -6 -86 14 -182 45 -257 83 -53 26
-58 27 -58 9 0 -10 19 -36 43 -58 103 -95 186 -119 447 -129 275 -11 546 23
713 88 104 42 137 85 123 161 -6 33 -69 117 -87 117 -5 0 -14 -12 -19 -26z"/>
<path d="M8260 14248 c0 -7 -3 -22 -6 -34 -4 -15 7 -35 40 -74 25 -30 46 -61
46 -70 0 -25 -57 -105 -95 -135 -67 -51 -99 -58 -223 -52 -129 7 -144 -4 -51
-38 40 -14 81 -19 156 -20 97 0 103 1 144 30 83 59 130 196 99 290 -21 64
-110 146 -110 103z"/>
<path d="M4325 14190 c-8 -16 -15 -33 -15 -38 0 -9 43 -32 60 -32 9 0 45 60
38 64 -32 21 -58 36 -62 36 -3 0 -12 -13 -21 -30z"/>
<path d="M9095 13900 c-125 -47 -178 -81 -157 -102 5 -5 62 12 135 42 69 27
131 50 136 50 11 0 31 32 31 49 0 15 0 15 -145 -39z"/>
<path d="M4902 13920 c-12 -19 -14 -19 -42 -5 -27 14 -30 14 -44 -7 -24 -33
-20 -52 16 -72 31 -19 31 -19 50 4 17 20 22 22 46 11 23 -11 29 -10 44 9 24
29 23 46 -4 64 -30 21 -51 20 -66 -4z"/>
<path d="M5315 13906 c-44 -18 -102 -41 -128 -50 -45 -17 -80 -56 -65 -72 4
-3 61 17 129 45 68 28 129 51 135 51 16 0 45 40 38 52 -8 12 -22 9 -109 -26z"/>
<path d="M8615 13859 c-130 -50 -145 -59 -145 -91 0 -16 9 -14 78 12 193 72
221 87 222 118 0 19 -15 15 -155 -39z"/>
<path d="M7502 13845 c-17 -37 -16 -41 19 -56 29 -12 33 -11 50 10 25 31 24
46 -6 59 -38 18 -51 15 -63 -13z"/>
<path d="M7543 13702 c-130 -45 -164 -61 -172 -80 -14 -30 -14 -32 4 -32 18 0
327 109 336 118 15 16 20 52 7 51 -7 -1 -86 -26 -175 -57z"/>
<path d="M10523 13468 c-12 -6 -34 -28 -49 -49 -21 -30 -33 -39 -56 -39 -24 0
-32 -7 -48 -42 -20 -46 -9 -67 17 -32 10 14 24 17 57 15 95 -5 179 86 130 140
-19 21 -21 22 -51 7z m22 -58 c5 -9 -53 -45 -61 -38 -5 6 35 48 46 48 5 0 11
-4 15 -10z"/>
<path d="M12566 13398 c-20 -23 -36 -45 -36 -50 0 -4 -12 -5 -28 -2 -24 5 -30
1 -45 -31 -9 -19 -17 -42 -17 -50 0 -22 18 -18 25 6 6 18 12 20 42 14 48 -9
96 10 133 51 31 36 38 72 18 92 -23 23 -56 13 -92 -30z m61 -25 c2 -6 -10 -16
-27 -21 -34 -12 -38 -7 -13 20 17 19 34 20 40 1z"/>
<path d="M4361 13353 c-17 -21 -31 -41 -31 -46 0 -5 -13 -6 -28 -2 -25 5 -30
2 -45 -30 -9 -20 -17 -42 -17 -50 0 -21 18 -18 25 4 5 15 13 18 49 14 81 -10
152 47 144 115 -2 22 -9 28 -34 30 -26 3 -37 -3 -63 -35z m69 -21 c0 -11 -51
-35 -58 -28 -3 3 1 12 8 21 13 16 50 21 50 7z"/>
<path d="M10050 13247 c-102 -43 -126 -57 -128 -75 -2 -12 1 -22 6 -22 6 0 62
21 126 46 111 44 151 73 129 94 -4 5 -64 -15 -133 -43z"/>
<path d="M10445 13228 c-5 -41 3 -100 34 -253 22 -110 45 -238 51 -285 6 -47
13 -87 15 -88 25 -26 34 123 14 234 -5 32 -25 129 -44 214 -18 85 -36 172 -40
193 -9 53 -22 46 -30 -15z"/>
<path d="M12105 13215 c-116 -47 -130 -56 -133 -79 -4 -31 -4 -31 50 -7 24 11
87 36 141 57 53 20 97 40 97 44 0 5 3 15 6 24 10 26 -21 18 -161 -39z"/>
<path d="M10254 13235 c-14 -22 -15 -30 -4 -53 15 -30 90 -423 84 -434 -10
-17 -75 -20 -98 -5 -17 12 -26 13 -35 4 -18 -18 -13 -65 11 -86 21 -21 21 -21
2 -57 -26 -50 -104 -118 -152 -132 -52 -16 -96 -15 -165 3 -71 18 -77 19 -77
1 0 -24 118 -69 197 -74 60 -4 79 -1 117 18 55 26 99 85 128 171 16 48 24 59
42 59 34 0 65 27 76 69 11 42 0 117 -43 307 -21 90 -22 105 -10 129 13 24 12
30 -11 66 -31 46 -40 48 -62 14z"/>
<path d="M12527 13233 c-17 -61 -15 -88 18 -249 19 -96 40 -218 46 -272 16
-138 18 -147 32 -133 23 23 12 185 -26 391 -19 107 -39 214 -42 238 -7 43 -20
55 -28 25z"/>
<path d="M12317 13200 c-15 -24 -16 -36 -8 -63 10 -32 50 -230 78 -386 12 -70
13 -85 1 -92 -22 -14 -95 -10 -112 6 -8 8 -19 15 -25 15 -17 0 -13 -73 5 -98
14 -21 14 -25 -1 -50 -56 -87 -119 -123 -225 -130 -59 -3 -88 0 -135 17 -41
15 -62 18 -70 10 -29 -29 134 -93 240 -93 114 -1 188 53 237 171 19 47 25 53
51 53 18 0 39 10 58 29 26 27 29 36 29 95 0 37 -14 142 -31 236 -28 160 -29
171 -13 194 15 25 15 28 -10 71 -15 25 -32 45 -39 45 -7 0 -21 -14 -30 -30z"/>
<path d="M4316 13154 c-4 -35 6 -106 43 -288 27 -132 52 -265 56 -294 8 -64
20 -60 29 11 8 62 1 115 -56 405 -42 218 -59 256 -72 166z"/>
<path d="M5343 13144 c-136 -50 -214 -87 -224 -106 -6 -11 -8 -22 -5 -25 11
-11 287 99 297 119 18 33 -2 36 -68 12z"/>
<path d="M7311 13116 c-73 -29 -137 -60 -142 -67 -15 -24 -11 -42 9 -34 9 3
67 25 127 47 130 47 155 62 155 88 0 11 -3 20 -7 20 -5 -1 -68 -25 -142 -54z"/>
<path d="M7925 13130 c-21 -22 -54 -45 -72 -51 -25 -8 -32 -15 -28 -27 3 -13
-8 -24 -41 -41 -91 -49 -164 -166 -164 -266 0 -97 59 -197 154 -261 28 -19 51
-42 51 -51 0 -9 13 -20 30 -26 17 -5 51 -30 78 -54 l48 -44 39 31 c22 17 42
36 46 41 3 5 21 16 41 24 24 10 33 20 29 30 -4 10 7 21 34 35 55 28 118 96
147 159 34 72 30 185 -10 253 -28 48 -103 122 -142 140 -13 6 -25 20 -27 31
-2 13 -15 24 -33 30 -16 5 -48 27 -70 48 -23 22 -48 39 -56 39 -8 0 -32 -18
-54 -40z m-45 -125 c10 -12 5 -17 -24 -29 -141 -59 -205 -210 -142 -334 29
-57 55 -82 123 -120 39 -21 50 -31 43 -42 -8 -12 -16 -11 -53 7 -133 64 -200
199 -163 326 21 73 69 134 136 175 62 37 63 37 80 17z m254 0 c55 -23 126 -93
152 -150 46 -98 23 -224 -55 -303 -43 -42 -117 -86 -136 -78 -26 9 -17 23 30
46 24 12 65 44 89 71 111 123 69 298 -91 378 -42 21 -50 31 -36 44 8 9 5 9 47
-8z m-29 -59 c121 -57 174 -176 126 -282 -70 -155 -300 -196 -439 -79 -128
108 -83 308 84 369 64 24 170 20 229 -8z"/>
<path d="M7905 12817 c-4 -15 3 -39 19 -67 14 -25 28 -68 32 -98 9 -77 28 -61
32 27 l3 72 31 -3 c23 -2 35 3 51 24 12 16 17 33 13 44 -6 16 -8 16 -27 -2
-19 -17 -20 -17 -26 4 -7 27 -19 28 -33 2 -6 -11 -19 -20 -30 -20 -11 0 -24 9
-30 20 -14 26 -28 25 -35 -3z"/>
<path d="M4154 13128 c-13 -25 -14 -38 -6 -67 6 -20 21 -94 32 -166 12 -71 31
-170 41 -220 l20 -90 -20 -17 c-62 -49 -130 59 -171 275 -11 57 -23 71 -34 41
-10 -27 -7 -84 10 -146 8 -33 13 -67 10 -75 -14 -35 -194 -81 -210 -54 -13 20
-26 1 -26 -39 0 -29 5 -42 20 -50 45 -24 187 18 226 67 l21 27 7 -30 c21 -83
91 -137 144 -112 62 30 66 102 21 366 -27 159 -30 187 -18 209 12 22 10 30
-10 69 -13 24 -28 44 -32 44 -5 0 -16 -14 -25 -32z"/>
<path d="M11292 13108 c-99 -41 -126 -56 -133 -76 -5 -14 -8 -26 -6 -28 5 -5
246 91 258 103 6 6 9 20 7 31 -3 20 -10 18 -126 -30z"/>
<path d="M2081 13096 c-23 -24 -57 -48 -74 -53 -20 -5 -32 -15 -32 -26 0 -9
-20 -29 -45 -45 -182 -116 -212 -334 -65 -478 29 -28 66 -56 84 -64 23 -9 30
-17 26 -30 -4 -14 2 -21 28 -29 18 -6 51 -29 72 -51 22 -22 46 -40 55 -40 9 0
34 18 55 40 22 22 53 44 70 49 19 5 29 14 29 25 -1 10 18 30 50 50 104 68 148
137 154 246 4 67 1 85 -20 131 -29 64 -91 130 -147 159 -27 13 -39 25 -35 35
4 9 -4 19 -23 27 -15 7 -50 32 -78 55 -27 24 -52 43 -55 43 -3 0 -25 -20 -49
-44z m-48 -129 c3 -8 -13 -22 -44 -37 -55 -26 -114 -85 -135 -136 -25 -59 -18
-142 16 -201 29 -51 89 -102 146 -123 25 -10 26 -12 12 -26 -14 -14 -20 -14
-58 6 -106 54 -177 173 -167 278 9 91 60 167 146 223 49 31 76 37 84 16z m267
-7 c177 -90 213 -324 70 -454 -55 -49 -119 -81 -134 -66 -8 9 -6 15 8 24 10 6
38 23 62 38 89 55 134 159 113 257 -13 60 -69 129 -137 168 -26 15 -49 28 -51
29 -6 5 10 24 20 24 5 0 27 -9 49 -20z m-51 -47 c58 -23 98 -60 125 -115 46
-92 27 -181 -54 -251 -186 -159 -496 -18 -449 204 31 143 224 225 378 162z"/>
<path d="M2114 12797 c-29 -31 -54 -73 -54 -91 0 -9 12 -19 26 -22 22 -6 25
-10 18 -33 -4 -14 -8 -37 -8 -51 -1 -21 4 -25 32 -28 33 -3 102 30 102 49 0 5
-21 9 -46 9 -40 0 -45 2 -39 18 19 43 17 70 -4 82 l-22 11 21 26 c38 48 16 74
-26 30z"/>
<path d="M4026 13114 c-3 -9 -6 -24 -6 -35 0 -27 -28 -24 -32 4 -4 30 -20 26
-37 -9 -24 -50 -51 -54 -51 -8 0 30 -17 23 -31 -13 -13 -35 5 -63 41 -63 16 0
32 5 35 10 3 6 23 10 44 10 42 0 56 11 66 52 12 46 -14 92 -29 52z"/>
<path d="M6800 13104 c-15 -39 -13 -58 36 -295 25 -122 43 -228 40 -235 -3 -8
-14 -14 -24 -14 -35 0 -71 39 -87 93 -12 40 -85 437 -85 462 0 3 -4 5 -10 5
-5 0 -14 -17 -20 -39 -8 -31 -5 -67 18 -191 l29 -152 -46 -29 c-61 -39 -137
-67 -251 -92 -82 -18 -128 -21 -325 -21 -217 0 -236 2 -328 27 -54 14 -123 40
-154 57 -63 34 -73 36 -73 17 0 -19 90 -112 128 -131 111 -57 420 -83 630 -52
182 27 319 72 399 132 36 28 39 26 48 -37 13 -86 54 -129 125 -129 37 0 58 29
66 91 l6 46 25 -23 c35 -32 83 -44 182 -44 66 0 94 5 128 21 24 11 43 24 43
27 0 4 6 15 14 24 11 15 16 15 52 3 61 -22 111 -19 125 6 14 27 5 86 -23 151
-40 94 -81 83 -138 -37 -46 -96 -58 -104 -175 -112 -124 -9 -184 18 -225 97
-15 31 -66 228 -85 330 -14 78 -28 91 -45 44z m615 -373 c18 -37 10 -43 -33
-26 -37 16 -38 18 -16 39 22 23 31 20 49 -13z"/>
<path d="M10134 13119 c-4 -7 -7 -24 -8 -38 -1 -32 -30 -35 -34 -3 -4 27 -32
30 -32 3 0 -20 -25 -51 -41 -51 -5 0 -9 11 -9 25 0 15 -6 25 -14 25 -26 0 -36
-66 -14 -88 17 -17 54 -15 72 3 8 8 30 15 50 15 41 0 56 20 56 74 0 36 -13 55
-26 35z"/>
<path d="M12214 13073 c-11 -54 -13 -56 -29 -43 -8 7 -15 19 -15 26 0 26 -20
14 -35 -22 -17 -41 -52 -45 -47 -5 3 34 -21 20 -32 -19 -8 -29 -7 -35 13 -52
23 -18 24 -18 57 1 19 11 41 18 49 15 8 -4 26 1 40 10 20 13 25 25 25 61 0 51
-17 69 -26 28z"/>
<path d="M11723 13036 c-33 -15 -58 -50 -48 -66 4 -6 17 -2 32 10 28 22 50 25
72 11 11 -7 5 -14 -28 -27 -29 -11 -41 -22 -39 -33 5 -22 41 -16 101 17 48 26
73 54 63 71 -3 5 -23 12 -43 16 -21 3 -47 8 -58 11 -11 2 -34 -3 -52 -10z"/>
<path d="M11047 13009 c-4 -13 4 -37 21 -63 18 -29 27 -59 30 -101 5 -72 17
-90 33 -49 17 45 5 137 -25 189 -29 49 -50 57 -59 24z"/>
<path d="M6243 12958 c-31 -34 -53 -83 -53 -118 0 -26 4 -31 31 -37 50 -10 17
-27 -53 -28 -73 0 -88 -18 -34 -40 57 -24 113 -20 142 12 48 51 46 104 -4 114
-18 4 -36 9 -39 13 -11 10 17 34 36 29 23 -6 43 20 39 49 -4 31 -38 35 -65 6z"/>
<path d="M7020 12959 c-10 -22 -7 -32 21 -78 27 -43 33 -63 33 -107 0 -65 17
-67 30 -3 11 55 -11 139 -48 184 l-24 30 -12 -26z"/>
<path d="M4976 12934 c-26 -26 -35 -64 -16 -64 6 0 10 5 10 10 0 15 44 30 70
23 19 -5 17 -8 -19 -30 -45 -26 -53 -43 -21 -43 49 0 146 66 138 92 -5 15 -64
36 -104 37 -21 1 -40 -8 -58 -25z"/>
<path d="M9643 12873 c-30 -6 -73 -59 -73 -89 0 -28 0 -28 36 -9 39 20 50 19
146 -11 l83 -27 -100 -33 c-145 -48 -195 -46 -187 9 l5 31 -24 -17 c-105 -75
-209 -101 -404 -101 -193 0 -240 15 -332 111 -55 56 -65 63 -83 53 -36 -19
-60 -70 -60 -127 0 -48 -3 -54 -42 -88 -35 -30 -107 -74 -218 -134 -26 -14
-11 -26 28 -23 85 6 262 114 262 159 0 11 6 13 23 8 88 -27 109 -29 122 -11
12 16 16 16 42 3 59 -31 138 -40 285 -34 152 6 228 22 312 64 l49 25 44 -22
c53 -27 82 -21 238 42 89 37 110 42 188 43 86 2 89 3 108 31 30 46 25 54 -33
54 -85 1 -204 26 -272 58 -69 32 -108 42 -143 35z m-908 -164 c21 -39 15 -45
-24 -24 -36 18 -36 19 -15 39 20 21 21 21 39 -15z"/>
<path d="M5277 12823 c-7 -39 -3 -46 48 -110 l26 -31 -55 -26 c-30 -14 -58
-26 -63 -26 -4 1 -21 24 -38 52 -35 60 -53 73 -87 65 -30 -8 -59 -61 -65 -122
-4 -31 0 -46 17 -67 18 -24 29 -28 71 -28 l50 0 -18 -31 c-28 -49 -100 -106
-162 -130 -52 -20 -153 -28 -225 -17 -10 2 -21 -2 -23 -9 -5 -14 73 -38 154
-48 65 -8 164 16 211 52 40 30 88 102 104 157 10 32 20 42 65 63 30 14 62 37
73 51 25 31 27 110 4 155 -17 33 -63 87 -75 87 -3 0 -9 -17 -12 -37z m-129
-183 c14 -24 1 -34 -34 -26 -26 7 -31 25 -13 43 14 14 31 8 47 -17z"/>
<path d="M10830 12829 c-12 -29 -12 -33 11 -50 31 -24 34 -24 58 7 27 34 27
36 -8 57 -40 23 -47 22 -61 -14z"/>
<path d="M3714 12796 c-3 -19 -3 -48 1 -64 7 -33 4 -36 -38 -46 -24 -6 -33 -1
-58 26 -25 26 -32 29 -40 17 -13 -21 -10 -71 6 -99 24 -42 18 -75 -17 -106
-39 -33 -155 -87 -218 -102 -81 -20 -263 -34 -334 -27 -103 10 -250 50 -327
89 -38 20 -71 31 -74 25 -11 -16 94 -107 160 -139 176 -84 537 -71 715 26 72
39 138 113 146 162 6 36 10 41 39 46 57 11 77 36 83 98 4 56 -12 128 -28 128
-5 0 -12 -15 -16 -34z"/>
<path d="M4758 12793 c-31 -36 -58 -103 -58 -146 0 -39 -5 -49 -42 -84 -24
-21 -82 -62 -130 -92 -88 -52 -118 -91 -61 -76 97 24 229 108 258 165 14 26
15 27 74 17 75 -12 91 -2 91 58 0 61 -56 169 -91 173 -15 2 -32 -4 -41 -15z
m48 -98 c21 -32 14 -39 -25 -30 -35 8 -44 17 -35 39 9 24 41 19 60 -9z"/>
<path d="M11684 12776 c-19 -19 -34 -43 -34 -55 0 -24 2 -25 54 -10 42 11 96
2 165 -28 l36 -15 -50 -14 c-76 -20 -243 -36 -305 -29 -115 13 -172 45 -216
121 -9 16 -14 17 -37 7 -15 -7 -39 -30 -54 -52 -34 -49 -76 -71 -135 -71 -47
0 -70 16 -82 58 -10 32 -24 27 -31 -10 -4 -21 1 -54 15 -92 29 -84 26 -108
-14 -144 -48 -42 -131 -60 -194 -43 -86 23 -104 62 -76 161 12 45 14 64 6 72
-18 18 -54 -76 -59 -152 -5 -79 15 -118 78 -151 34 -17 55 -20 109 -17 129 7
209 76 210 179 l0 47 43 6 c24 4 60 16 81 26 36 20 37 20 64 0 15 -10 50 -24
77 -30 45 -10 51 -9 63 8 12 18 16 18 64 5 108 -28 259 -13 418 40 99 33 134
38 198 28 57 -9 68 -4 96 40 l16 26 -67 6 c-78 8 -201 45 -285 88 -77 39 -111
38 -154 -5z m-363 -114 c6 -15 5 -22 -4 -22 -23 0 -40 18 -33 35 8 22 27 15
37 -13z"/>
<path d="M3146 12748 c-22 -30 -20 -44 6 -62 32 -23 45 -20 62 12 16 31 12 43
-21 61 -29 15 -29 15 -47 -11z"/>
<path d="M9791 12576 c-105 -41 -136 -58 -143 -76 -5 -12 -6 -25 -4 -27 2 -3
44 11 93 30 48 19 111 42 138 52 58 21 61 23 70 53 9 31 0 29 -154 -32z"/>
<path d="M4771 12470 c-52 -22 -100 -45 -107 -51 -15 -12 -19 -49 -6 -48 4 0
57 21 117 47 89 38 111 52 113 70 5 30 -7 28 -117 -18z"/>
<path d="M9472 12489 c-13 -20 -14 -20 -39 -3 -26 16 -27 16 -45 -6 -27 -33
-22 -57 14 -76 30 -16 32 -15 49 7 16 22 19 22 44 9 25 -13 29 -13 46 9 25 30
24 46 -3 65 -30 22 -51 20 -66 -5z"/>
<path d="M8746 12435 c-104 -38 -142 -57 -149 -73 -6 -12 -7 -25 -4 -29 4 -3
70 18 147 47 118 45 141 57 146 77 4 13 5 25 3 27 -2 2 -67 -20 -143 -49z"/>
<path d="M6905 12420 c-123 -46 -155 -66 -155 -98 0 -9 6 -12 18 -7 9 4 71 27
137 52 66 25 126 50 133 55 13 11 17 48 5 48 -5 0 -66 -23 -138 -50z"/>
<path d="M6236 12409 c-142 -54 -156 -62 -156 -91 0 -15 4 -18 18 -13 9 3 73
27 142 52 119 43 150 61 150 90 0 19 -11 16 -154 -38z"/>
<path d="M5372 12414 c-12 -25 -12 -25 -43 -7 -30 18 -30 18 -49 -7 -27 -35
-25 -47 13 -70 l32 -20 18 21 c15 19 21 20 43 10 35 -16 38 -15 57 18 22 38
23 36 -17 60 -42 26 -40 26 -54 -5z"/>
<path d="M3990 12367 c-149 -62 -150 -63 -150 -89 0 -15 4 -18 18 -13 9 5 73
29 140 55 118 45 142 59 142 88 0 19 -16 14 -150 -41z"/>
<path d="M3695 12380 c-7 -21 -30 -27 -40 -10 -13 21 -45 10 -60 -21 -15 -29
-15 -32 2 -45 35 -26 56 -28 74 -5 15 19 21 20 44 9 24 -11 29 -10 46 11 25
31 24 45 -6 65 -33 21 -52 20 -60 -4z"/>
<path d="M11040 12293 c-124 -46 -247 -98 -252 -107 -4 -6 -8 -19 -8 -30 0
-13 4 -16 18 -11 9 4 73 29 140 55 68 26 128 53 133 61 20 32 7 46 -31 32z"/>
<path d="M3235 12222 c-117 -48 -141 -61 -143 -79 -2 -13 0 -23 4 -23 7 0 277
99 281 103 7 8 13 57 7 56 -5 0 -72 -26 -149 -57z"/>
<path d="M3618 11850 c-32 -37 -47 -48 -63 -44 -17 4 -25 -4 -42 -40 -23 -46
-15 -75 9 -36 10 16 23 20 70 20 50 0 62 4 93 31 28 25 35 38 35 69 0 37 -12
50 -45 50 -8 0 -33 -22 -57 -50z m53 -30 c-13 -11 -30 -20 -39 -20 -13 0 -12
3 3 20 10 11 28 20 39 20 20 -1 20 -1 -3 -20z"/>
<path d="M7438 11805 c-3 -3 -61 -25 -129 -50 -120 -43 -171 -77 -151 -97 13
-13 282 94 294 117 10 16 -2 42 -14 30z"/>
<path d="M8926 11768 c-14 -45 -11 -81 25 -278 41 -231 46 -250 60 -250 17 0
9 153 -16 298 -14 81 -29 167 -33 191 -7 43 -28 66 -36 39z"/>
<path d="M7842 11700 c-136 -54 -152 -63 -152 -92 0 -15 4 -18 18 -13 9 4 71
27 137 51 115 43 145 62 145 91 0 19 -13 16 -148 -37z"/>
<path d="M4175 11700 c-21 -22 -54 -45 -72 -51 -25 -8 -32 -15 -28 -27 3 -13
-8 -24 -40 -41 -96 -51 -165 -162 -165 -266 0 -104 67 -213 170 -274 19 -11
35 -29 35 -38 0 -11 12 -22 33 -29 18 -5 52 -30 77 -54 l45 -44 32 30 c18 16
37 35 44 43 6 8 26 19 45 25 21 7 34 18 34 28 0 10 20 30 45 46 52 33 111 96
136 144 9 18 19 65 22 104 4 61 1 80 -20 125 -32 70 -70 114 -134 155 -32 20
-51 40 -50 50 0 11 -10 20 -29 25 -17 5 -48 27 -70 49 -21 22 -46 40 -55 40
-9 0 -33 -18 -55 -40z m-47 -131 c2 -9 -11 -20 -31 -27 -49 -18 -109 -73 -135
-124 -26 -53 -30 -140 -8 -192 21 -49 78 -108 130 -135 46 -23 62 -51 28 -51
-28 0 -104 52 -144 100 -73 84 -87 186 -39 285 32 67 64 101 131 139 48 27 63
28 68 5z m263 1 c175 -90 221 -294 97 -434 -45 -53 -121 -101 -143 -92 -25 9
-17 23 28 46 130 67 185 206 127 325 -25 51 -88 109 -137 127 -31 11 -41 27
-26 41 9 10 9 10 54 -13z m-62 -45 c167 -58 220 -230 110 -350 -104 -112 -297
-118 -407 -12 -61 58 -80 124 -61 204 16 60 86 133 150 156 57 20 155 21 208
2z"/>
<path d="M4212 11378 c-19 -24 -42 -91 -42 -123 0 -70 69 -87 119 -30 40 46
40 80 0 128 -31 38 -59 47 -77 25z m34 -56 c6 -4 16 -16 22 -28 13 -24 -1 -44
-30 -44 -23 0 -32 22 -24 55 7 26 13 30 32 17z"/>
<path d="M11401 11694 c-57 -24 -110 -49 -117 -55 -13 -11 -20 -49 -9 -49 5 0
248 99 251 103 1 1 5 12 8 25 10 32 -11 28 -133 -24z"/>
<path d="M9800 11700 c-39 -42 -47 -80 -21 -101 12 -10 27 -19 34 -22 16 -6
-25 -50 -80 -85 -47 -30 -62 -52 -35 -52 28 0 94 39 137 81 23 21 48 39 58 39
9 0 17 4 17 9 0 5 3 16 6 25 4 11 1 16 -10 16 -12 0 -16 10 -16 38 0 42 -23
82 -47 82 -8 0 -28 -13 -43 -30z m48 -53 c4 -19 -6 -21 -27 -8 -16 10 -5 34
12 28 7 -2 13 -11 15 -20z"/>
<path d="M10940 11684 c-63 -25 -125 -49 -137 -54 -24 -10 -48 -46 -35 -54 5
-3 71 18 147 47 107 40 140 57 146 74 4 12 5 24 1 27 -4 2 -59 -16 -122 -40z"/>
<path d="M8043 11698 c-32 -40 -34 -58 -14 -96 18 -34 109 -448 100 -457 -14
-14 -206 -38 -324 -40 l-140 -3 0 -39 0 -38 85 -3 c95 -3 387 31 404 48 24 24
17 134 -22 323 -31 156 -36 192 -25 205 18 25 16 33 -21 75 -25 30 -34 36 -43
25z"/>
<path d="M12483 11694 c-16 -39 -5 -154 31 -334 21 -102 41 -215 44 -253 4
-37 12 -69 17 -70 15 -3 23 89 14 170 -12 108 -80 487 -90 497 -5 5 -12 1 -16
-10z"/>
<path d="M5254 11656 c-46 -46 -48 -92 -3 -108 l31 -11 -39 -39 c-21 -22 -53
-48 -70 -59 -36 -22 -43 -39 -17 -39 24 0 130 67 153 96 10 13 26 24 34 24 23
0 33 41 13 52 -10 5 -16 22 -16 41 0 34 -23 77 -42 77 -5 0 -25 -15 -44 -34z
m53 -41 c8 -21 -1 -28 -27 -20 -17 5 -19 10 -9 21 15 18 28 18 36 -1z"/>
<path d="M8615 11630 c-125 -45 -163 -63 -172 -81 -19 -37 -2 -41 63 -15 32
13 106 39 163 57 102 33 143 62 126 89 -8 13 2 16 -180 -50z"/>
<path d="M11600 11661 c-7 -17 -9 -43 -6 -58 4 -16 15 -75 26 -133 11 -58 31
-154 45 -215 13 -60 25 -113 25 -116 0 -22 -320 -52 -410 -38 -22 4 -25 0 -28
-33 -5 -55 17 -62 153 -55 130 8 284 32 299 47 24 24 18 161 -13 326 -25 135
-28 167 -18 193 10 26 8 36 -10 68 -28 48 -47 52 -63 14z"/>
<path d="M12250 11656 c-47 -18 -118 -44 -158 -57 -58 -18 -74 -28 -79 -47 -3
-12 -3 -25 0 -28 10 -11 322 106 340 127 40 49 13 50 -103 5z"/>
<path d="M3606 11665 c-13 -35 -4 -111 38 -326 24 -123 47 -248 51 -276 15
-110 42 -30 31 90 -4 39 -24 161 -46 272 -21 110 -40 211 -42 224 -4 29 -23
38 -32 16z"/>
<path d="M6468 11623 c-100 -40 -139 -60 -143 -74 -4 -12 -5 -23 -2 -26 7 -7
280 99 289 112 10 13 10 45 1 44 -5 -1 -70 -26 -145 -56z"/>
<path d="M1678 11663 c-18 -30 -14 -88 16 -298 48 -321 62 -345 223 -365 101
-13 238 1 358 35 118 34 132 44 140 99 9 59 0 96 -36 145 -37 52 -57 53 -61 4
-2 -30 3 -45 25 -71 15 -18 27 -39 27 -47 0 -18 -85 -49 -191 -71 -110 -22
-287 -16 -344 12 -22 10 -46 32 -53 47 -7 15 -24 107 -38 205 -13 97 -29 204
-34 236 -9 58 -23 86 -32 69z"/>
<path d="M2156 11610 c-128 -46 -161 -62 -168 -80 -16 -43 -20 -43 217 41 66
23 121 42 122 43 1 1 4 13 8 29 5 20 3 27 -6 26 -8 -1 -86 -27 -173 -59z"/>
<path d="M8239 11644 c-19 -49 51 -506 85 -560 28 -42 73 -57 186 -62 151 -6
339 29 360 68 15 28 12 137 -4 168 -17 32 -54 68 -62 59 -3 -3 -9 -22 -14 -41
-7 -31 -4 -41 21 -73 16 -20 28 -41 26 -47 -13 -38 -312 -72 -406 -46 -88 24
-95 41 -136 354 -13 104 -29 194 -34 199 -7 7 -14 1 -22 -19z"/>
<path d="M11804 11633 c-9 -34 43 -462 62 -516 19 -54 31 -67 84 -91 36 -16
64 -20 145 -19 109 0 267 26 302 49 55 35 52 172 -5 236 -39 45 -58 -45 -22
-104 11 -18 20 -38 20 -44 0 -41 -274 -71 -386 -43 -61 16 -98 60 -112 135 -6
32 -18 133 -27 224 -8 91 -18 173 -21 183 -8 26 -33 20 -40 -10z"/>
<path d="M10109 11599 c-20 -22 -29 -41 -29 -66 0 -29 4 -36 31 -45 l30 -10
-28 -30 c-15 -16 -49 -43 -75 -59 -49 -32 -60 -49 -33 -49 28 0 94 40 142 85
25 24 50 42 54 39 4 -2 13 5 20 17 8 17 8 23 -2 29 -7 5 -14 25 -16 46 -4 41
-27 74 -51 74 -7 0 -27 -14 -43 -31z m51 -50 c0 -17 -3 -18 -21 -9 -16 9 -18
14 -9 26 15 17 30 9 30 -17z"/>
<path d="M9315 11569 c-74 -28 -138 -59 -148 -71 -37 -44 0 -40 139 15 102 40
139 59 145 75 5 12 5 23 1 25 -4 3 -65 -17 -137 -44z"/>
<path d="M3265 11585 c-22 -21 -34 -55 -20 -55 3 0 18 9 33 20 22 16 34 19 52
12 24 -9 24 -10 -18 -31 -42 -22 -57 -51 -24 -51 26 1 97 35 121 59 31 31 26
49 -16 60 -63 18 -101 14 -128 -14z"/>
<path d="M7325 11579 c-9 -17 -15 -32 -13 -33 25 -19 54 -36 60 -36 5 0 17 14
28 32 l19 32 -27 18 c-38 25 -49 23 -67 -13z"/>
<path d="M10936 11505 c-22 -34 -20 -42 16 -61 30 -16 32 -15 49 7 25 32 24
44 -6 63 -33 21 -40 20 -59 -9z"/>
<path d="M7120 11507 c-27 -14 -58 -62 -47 -73 4 -4 15 1 26 10 12 11 31 16
53 14 l33 -3 -42 -23 c-53 -28 -59 -57 -10 -47 58 13 110 48 121 82 6 19 1 23
-48 37 -64 19 -55 19 -86 3z"/>
<path d="M12266 11505 c-3 -9 -6 -25 -6 -36 0 -10 -7 -19 -15 -19 -9 0 -15 9
-15 25 0 36 -19 31 -36 -10 -10 -24 -21 -35 -35 -35 -16 0 -20 5 -16 20 6 24
-12 38 -24 19 -16 -26 -10 -78 10 -89 21 -10 71 5 71 21 0 5 13 6 29 3 42 -9
73 25 69 73 -3 39 -21 55 -32 28z"/>
<path d="M7881 11475 c-37 -42 -59 -109 -44 -133 5 -10 22 -18 37 -20 57 -7
18 -37 -64 -49 -65 -10 -67 -26 -4 -35 71 -10 123 8 140 49 28 65 13 103 -39
103 -22 0 -28 4 -25 18 2 10 12 16 25 15 27 -3 50 51 32 73 -17 20 -24 18 -58
-21z"/>
<path d="M8716 11495 c-3 -9 -6 -25 -6 -36 0 -10 -7 -19 -15 -19 -8 0 -15 9
-15 19 0 35 -19 33 -34 -4 -11 -25 -21 -35 -37 -35 -16 0 -20 5 -16 20 6 24
-12 38 -24 19 -5 -8 -9 -29 -9 -47 0 -44 37 -63 74 -38 14 9 39 16 55 16 38 0
64 35 59 81 -3 36 -22 49 -32 24z"/>
<path d="M10645 11475 c-14 -13 -25 -33 -25 -45 l0 -21 29 22 c22 16 36 20 58
14 l28 -7 -42 -21 c-55 -27 -58 -52 -7 -44 47 8 114 54 114 78 0 12 -13 24
-36 34 -53 22 -91 19 -119 -10z"/>
<path d="M2198 11473 c-29 -35 -29 -52 2 -68 16 -8 33 -15 37 -15 9 0 48 60
41 64 -21 14 -58 36 -61 36 -2 0 -11 -8 -19 -17z"/>
<path d="M11480 11470 c-32 -32 -61 -99 -58 -133 3 -27 8 -33 41 -42 36 -10
38 -12 21 -25 -11 -10 -39 -15 -76 -15 -41 1 -58 -3 -58 -12 0 -19 43 -33 96
-33 37 0 51 6 75 30 26 25 30 36 27 72 -3 41 -4 43 -46 51 -38 7 -41 10 -31
28 6 13 17 18 28 14 12 -4 21 2 29 20 16 34 15 38 -8 53 -17 10 -23 9 -40 -8z"/>
<path d="M6507 11450 c-12 -17 -17 -18 -46 -7 -29 11 -34 10 -47 -7 -22 -31
-17 -54 17 -72 30 -15 33 -15 51 4 17 16 24 18 49 9 24 -10 31 -8 44 8 21 29
18 51 -10 69 -32 21 -41 20 -58 -4z"/>
<path d="M7407 11423 c-13 -12 -7 -90 7 -102 17 -14 70 -131 62 -138 -3 -3
-26 -2 -51 1 -40 6 -45 10 -45 32 0 38 -22 24 -38 -24 -14 -43 -28 -50 -63
-32 -16 9 -17 15 -8 31 6 11 8 28 4 37 -5 12 -12 8 -36 -21 -36 -43 -52 -53
-107 -65 -40 -9 -40 -9 -31 15 10 26 12 73 4 73 -3 0 -19 -15 -35 -34 -38 -42
-106 -72 -200 -87 -117 -18 -215 3 -273 58 l-27 27 -33 -31 c-17 -16 -43 -37
-57 -46 -28 -19 -111 -23 -141 -6 -19 10 -19 12 -5 34 23 36 20 71 -9 93 -76
60 -235 17 -235 -63 0 -24 3 -26 28 -21 17 4 35 1 46 -7 18 -13 16 -16 -33
-32 -36 -12 -72 -16 -112 -13 -50 4 -64 9 -93 37 -22 21 -38 50 -45 80 -28
111 -42 151 -56 151 -7 0 -17 -9 -20 -20 -10 -33 -55 -80 -76 -80 -11 0 -25
13 -35 31 -9 18 -19 28 -24 23 -16 -16 -14 -78 3 -111 9 -18 17 -40 17 -51 0
-46 -125 -122 -258 -156 -86 -23 -262 -35 -353 -25 -119 14 -291 74 -368 128
-30 22 -61 28 -61 12 0 -5 26 -33 58 -62 61 -57 152 -107 244 -134 128 -37
343 -35 492 5 155 41 246 107 272 196 12 41 22 57 40 64 14 6 33 23 42 40 9
16 20 30 24 30 4 0 10 -21 14 -47 17 -117 50 -166 129 -188 59 -18 121 -10
214 28 l58 23 32 -22 c18 -12 52 -27 77 -34 56 -16 119 0 179 45 l41 32 28
-23 c67 -59 213 -68 380 -24 44 11 99 20 122 20 24 0 61 7 83 16 36 14 42 14
70 0 44 -23 67 -20 91 14 21 29 22 29 50 15 16 -8 45 -15 65 -15 32 0 38 4 51
35 28 67 12 149 -48 245 -31 50 -39 56 -51 43z"/>
<path d="M9837 11413 c-13 -13 -7 -82 14 -149 l21 -68 -26 -23 c-49 -41 -166
-59 -184 -27 -15 26 -32 7 -32 -36 0 -58 21 -74 89 -66 67 8 135 37 153 65 18
29 23 27 42 -22 24 -64 67 -102 117 -102 35 0 46 6 80 42 22 24 41 37 45 31 4
-6 32 -22 63 -36 53 -25 65 -27 206 -27 156 0 245 17 364 67 43 18 44 18 78
-3 28 -18 46 -21 105 -17 64 3 73 7 98 35 33 37 45 96 31 150 -12 45 -69 125
-84 120 -7 -2 -15 -20 -20 -39 -8 -32 -5 -41 27 -83 43 -55 45 -78 11 -93 -30
-14 -94 -15 -114 -3 -11 7 -11 13 3 32 36 51 12 91 -65 108 -83 19 -161 -20
-171 -84 -3 -17 3 -20 34 -20 52 0 71 -21 32 -36 -119 -46 -315 -69 -424 -50
-36 7 -93 26 -127 43 l-62 30 -30 -35 c-38 -43 -71 -53 -111 -32 -42 22 -73
83 -110 218 -32 112 -38 125 -53 110z"/>
<path d="M2670 11383 c0 -15 11 -69 25 -118 l25 -90 -21 -17 c-23 -19 -110
-48 -144 -48 -11 0 -30 7 -41 15 -27 18 -34 11 -34 -36 0 -29 5 -41 22 -50 49
-26 198 18 219 65 12 25 12 25 43 -27 20 -34 45 -60 73 -75 86 -47 262 -39
442 20 l93 31 71 -20 c39 -12 77 -19 84 -16 33 13 44 112 18 162 -20 39 -133
141 -186 168 -54 27 -71 17 -68 -41 1 -23 -6 -66 -15 -98 -9 -31 -14 -67 -11
-81 6 -23 3 -27 -35 -37 -72 -19 -152 -30 -225 -30 -165 0 -209 39 -280 249
-32 96 -55 127 -55 74z m719 -189 c12 -15 21 -30 21 -35 0 -16 -42 -30 -71
-24 -25 6 -29 10 -23 28 7 25 33 57 45 57 4 0 17 -12 28 -26z m141 -96 c0 -12
-28 -9 -59 6 -23 13 -27 20 -23 46 l5 32 38 -38 c22 -21 39 -42 39 -46z"/>
<path d="M5256 11308 c-24 -34 -19 -54 15 -68 29 -12 33 -12 50 11 23 30 20
39 -18 62 -31 18 -32 18 -47 -5z"/>
<path d="M9353 11298 c-33 -36 -45 -67 -46 -116 0 -37 5 -49 27 -69 33 -28 46
-29 80 -2 l26 21 -11 -29 c-29 -77 -100 -151 -178 -186 -38 -18 -63 -21 -144
-20 -68 1 -97 -2 -95 -9 11 -33 175 -56 264 -38 50 10 66 20 104 59 105 108
123 295 37 389 -11 12 -26 22 -32 22 -6 0 -21 -10 -32 -22z m44 -87 c13 -21 8
-31 -18 -31 -24 0 -33 18 -19 35 16 20 23 19 37 -4z"/>
<path d="M8983 11194 c-36 -28 -43 -63 -18 -84 11 -9 12 -16 4 -26 -23 -28 3
-31 72 -9 65 20 88 36 89 59 0 5 -16 6 -35 3 -37 -6 -95 9 -95 24 0 12 34 11
46 -1 16 -16 37 14 29 40 -9 28 -52 26 -92 -6z"/>
<path d="M9056 11045 c-78 -28 -96 -40 -96 -66 0 -24 1 -24 94 10 89 34 81 29
90 59 9 28 1 27 -88 -3z"/>
<path d="M12573 10980 c-18 -10 -40 -31 -49 -45 -15 -24 -15 -27 0 -44 9 -10
14 -25 10 -34 -3 -9 -3 -20 0 -25 7 -11 147 34 158 51 15 23 8 29 -30 22 -40
-6 -92 7 -92 25 0 14 37 12 44 -2 3 -9 9 -7 21 7 18 23 16 34 -11 51 -17 12
-24 11 -51 -6z"/>
<path d="M5808 10947 c-13 -18 -19 -20 -29 -9 -20 19 -46 14 -63 -10 -24 -33
-20 -47 20 -65 35 -17 36 -17 53 6 15 20 21 22 39 12 30 -16 38 -14 57 16 18
26 17 27 -11 50 -36 28 -44 28 -66 0z"/>
<path d="M12278 10948 c-14 -20 -15 -20 -40 -4 -25 16 -26 16 -47 -10 -28 -35
-27 -41 11 -64 32 -19 32 -19 54 1 19 17 25 18 49 7 25 -11 29 -10 46 11 25
31 24 45 -6 65 -33 22 -50 20 -67 -6z"/>
<path d="M6217 10908 c-98 -39 -131 -57 -140 -75 -5 -12 -8 -25 -6 -27 2 -3
69 21 149 53 118 47 146 62 148 80 2 12 -2 21 -10 20 -7 0 -71 -23 -141 -51z"/>
<path d="M8739 10929 c-13 -19 -17 -19 -43 -8 -26 12 -30 11 -47 -10 -27 -33
-24 -48 13 -67 31 -16 32 -16 51 7 15 19 21 21 38 11 28 -18 45 -15 63 13 22
33 21 38 -13 58 -37 22 -46 21 -62 -4z"/>
<path d="M2646 10891 c-82 -35 -111 -53 -118 -70 -5 -13 -6 -26 -4 -28 2 -3
40 11 83 30 43 20 100 44 127 55 30 12 53 27 57 41 13 32 -19 26 -145 -28z"/>
<path d="M10115 10910 c-20 -38 -20 -37 17 -56 31 -16 32 -16 50 6 24 30 23
45 -7 64 -34 22 -42 20 -60 -14z"/>
<path d="M12620 10815 c-63 -24 -90 -45 -90 -72 0 -7 2 -13 4 -13 6 0 170 60
172 63 1 1 5 12 8 25 9 29 -9 28 -94 -3z"/>
<path d="M3605 10510 c-71 -27 -135 -57 -142 -67 -19 -25 -17 -47 5 -38 9 4
51 19 92 35 146 54 190 77 190 99 0 12 -3 21 -7 20 -5 0 -66 -22 -138 -49z"/>
<path d="M4845 10520 c-11 -5 -68 -27 -127 -50 -99 -38 -118 -52 -118 -85 0
-14 280 89 292 108 21 33 -3 46 -47 27z"/>
<path d="M12314 10456 c-11 -8 -33 -32 -48 -54 -20 -30 -32 -38 -47 -35 -22 6
-42 -15 -58 -59 -8 -22 -7 -28 4 -28 7 0 16 9 20 20 5 15 12 18 35 13 44 -8
96 5 130 33 24 21 30 34 30 65 0 28 -5 41 -19 49 -25 13 -23 13 -47 -4z m31
-56 c5 -9 -53 -45 -61 -38 -5 6 35 48 46 48 5 0 11 -4 15 -10z"/>
<path d="M10259 10410 c-31 -33 -55 -50 -71 -50 -18 0 -29 -9 -41 -35 -9 -20
-17 -43 -17 -53 1 -14 5 -12 21 7 17 21 28 24 64 22 97 -6 183 91 127 142 -10
10 -22 17 -27 17 -5 0 -30 -22 -56 -50z m53 -25 c1 -11 -44 -37 -51 -30 -2 3
4 14 14 25 19 21 36 23 37 5z"/>
<path d="M5043 10425 c-12 -8 -31 -31 -43 -51 -18 -29 -27 -34 -45 -30 -19 5
-28 -1 -44 -28 -22 -35 -27 -66 -11 -66 5 0 13 8 19 17 7 13 20 16 54 14 97
-6 185 90 131 143 -19 20 -34 20 -61 1z m35 -57 c-3 -7 -19 -18 -37 -25 -33
-14 -35 -10 -8 25 12 16 50 16 45 0z"/>
<path d="M3598 10405 c-42 -28 -56 -59 -37 -82 8 -8 12 -28 11 -43 l-3 -27 72
24 c67 21 88 35 89 56 0 4 -22 7 -48 7 -27 0 -56 6 -66 13 -18 13 -18 14 -1
21 10 3 24 1 32 -6 12 -10 18 -9 29 7 12 16 12 21 -3 37 -21 24 -31 23 -75 -7z"/>
<path d="M9950 10417 c-27 -13 -59 -62 -48 -73 4 -3 14 1 23 10 15 14 85 24
85 11 0 -2 -18 -14 -40 -25 -22 -11 -40 -27 -40 -36 0 -35 115 14 147 62 19
29 21 27 -41 48 -59 19 -55 19 -86 3z"/>
<path d="M4815 10361 c-3 -12 -3 -25 0 -31 3 -5 -3 -10 -14 -10 -14 0 -21 6
-21 20 0 30 -16 24 -39 -15 -24 -41 -51 -47 -51 -10 0 32 -18 33 -26 1 -11
-47 -1 -71 32 -74 18 -2 36 3 43 12 8 10 23 13 45 9 41 -6 59 14 60 69 1 44
-18 63 -29 29z"/>
<path d="M7166 10301 c-21 -21 -52 -43 -69 -48 -20 -5 -32 -15 -32 -26 0 -9
-23 -32 -51 -51 -64 -43 -100 -86 -132 -155 -21 -45 -24 -64 -20 -126 7 -102
58 -182 158 -247 25 -16 45 -36 45 -46 0 -10 13 -21 34 -28 19 -6 42 -20 50
-30 9 -11 29 -29 45 -42 l30 -23 45 44 c25 25 60 49 76 54 18 6 30 17 30 27 0
9 16 26 35 37 55 33 109 90 138 144 36 68 38 188 5 251 -33 61 -71 103 -129
140 -31 20 -51 40 -50 50 0 11 -10 21 -29 27 -16 5 -48 27 -70 48 -23 22 -48
39 -56 39 -8 0 -32 -17 -53 -39z m-49 -128 c2 -6 -20 -24 -50 -41 -92 -52
-138 -124 -139 -216 -1 -92 54 -176 144 -222 49 -25 59 -40 34 -50 -38 -15
-157 85 -192 161 -61 129 0 290 135 360 47 25 62 26 68 8z m264 -3 c106 -54
175 -165 167 -269 -5 -71 -40 -141 -96 -192 -62 -58 -132 -84 -132 -49 0 6 22
21 48 34 54 27 107 82 128 132 21 50 18 137 -7 189 -24 51 -86 109 -136 127
-31 11 -41 27 -26 41 9 10 9 10 54 -13z m-60 -45 c115 -39 188 -158 160 -261
-15 -55 -75 -122 -135 -150 -71 -33 -181 -33 -251 0 -83 38 -145 124 -145 201
0 75 64 164 144 201 61 28 159 32 227 9z"/>
<path d="M7148 9977 c-15 -29 15 -49 67 -45 l40 3 6 -55 c7 -64 23 -100 45
-100 17 0 17 4 -5 138 -6 35 -13 68 -16 72 -3 5 -33 8 -66 8 -49 -1 -62 -4
-71 -21z"/>
<path d="M9991 10259 c-25 -40 -25 -42 -7 -77 7 -15 17 -52 21 -82 4 -30 22
-116 41 -190 19 -74 34 -144 34 -156 0 -26 -37 -44 -91 -44 -49 0 -87 19 -126
63 -55 62 -65 60 -128 -29 -53 -73 -74 -88 -117 -79 -27 6 -29 10 -24 39 11
56 -7 49 -36 -15 -26 -58 -29 -61 -55 -54 -37 9 -37 9 -24 46 14 42 14 49 -3
49 -8 0 -23 -16 -35 -35 -22 -37 -71 -65 -114 -65 -23 0 -24 2 -14 40 15 54
-4 76 -27 32 -44 -85 -291 -96 -366 -17 -13 14 -27 25 -32 25 -5 0 -27 -14
-49 -32 -35 -28 -50 -33 -110 -36 -95 -6 -100 -3 -83 45 18 53 17 101 -6 151
-16 36 -23 42 -49 42 -22 0 -38 -10 -66 -42 -38 -45 -71 -135 -60 -167 4 -15
-1 -20 -26 -25 -49 -9 -140 -7 -184 5 -72 20 -102 64 -141 207 -8 27 -23 9
-30 -35 -10 -66 -48 -103 -106 -103 -48 0 -100 -27 -118 -60 -7 -13 -9 -41 -5
-74 l7 -53 -49 -35 c-26 -20 -78 -52 -115 -73 -88 -48 -95 -60 -33 -52 71 10
148 49 202 103 l48 48 67 -3 c66 -3 68 -2 78 25 8 21 7 39 -3 72 l-15 44 32
29 31 28 13 -32 c49 -116 196 -162 360 -113 60 18 66 19 110 3 106 -37 188
-29 255 24 l38 31 39 -36 c47 -42 83 -50 197 -42 96 7 122 8 198 5 29 -1 64 5
80 13 27 14 33 14 60 -3 45 -28 69 -24 91 16 20 39 30 42 58 20 30 -23 65 -18
96 14 l29 29 39 -20 c61 -30 112 -35 128 -13 11 15 26 18 81 16 85 -2 114 12
131 64 16 48 6 143 -33 321 -24 104 -25 123 -14 156 11 34 10 40 -8 61 -11 12
-25 31 -31 41 -9 18 -11 17 -31 -15z m-1386 -499 c15 -29 15 -31 -11 -55 -29
-27 -53 -32 -72 -13 -18 18 -15 33 14 67 32 39 49 39 69 1z m1214 -36 c16 -35
9 -39 -29 -19 -26 13 -29 19 -19 31 17 21 34 17 48 -12z m-1842 -96 c33 -31
29 -41 -14 -33 -57 10 -77 23 -62 41 17 20 49 17 76 -8z"/>
<path d="M12065 10246 c-18 -32 -18 -37 -2 -73 9 -21 21 -72 27 -113 6 -41 22
-131 35 -199 14 -68 22 -128 19 -132 -8 -14 -54 -35 -111 -52 l-51 -15 19 41
c42 93 17 147 -69 147 -58 0 -72 -9 -179 -111 -51 -49 -97 -89 -103 -89 -6 0
-33 11 -60 25 -46 23 -50 28 -50 60 0 37 -8 42 -43 24 -11 -7 -64 -26 -116
-44 -82 -28 -96 -36 -104 -60 -8 -22 -6 -30 7 -37 13 -7 14 -13 5 -30 -22 -41
-95 -111 -134 -129 -54 -25 -141 -24 -216 1 -99 34 -91 2 11 -44 138 -62 224
-57 307 18 35 32 50 56 68 111 l24 70 75 23 75 22 36 -37 c24 -27 33 -44 30
-58 -4 -11 -9 -37 -12 -59 -8 -54 17 -44 35 15 l14 44 146 1 c116 1 164 6 227
23 99 26 162 58 189 94 30 40 27 127 -9 309 -27 139 -28 148 -12 166 20 22 22
48 4 59 -8 4 -22 20 -32 36 -9 15 -21 27 -25 27 -4 0 -15 -15 -25 -34z m-117
-472 c12 -4 22 -12 22 -20 0 -35 -146 -104 -222 -104 -31 0 -31 0 -12 21 28
31 105 85 139 97 37 13 44 13 73 6z"/>
<path d="M12256 10248 c-12 -45 -5 -99 38 -319 24 -123 47 -250 51 -281 7 -61
20 -75 31 -32 13 50 -4 201 -45 404 -53 264 -50 250 -60 250 -5 0 -11 -10 -15
-22z"/>
<path d="M10695 10220 c-14 -27 -14 -33 -1 -58 8 -15 26 -103 40 -197 40 -274
41 -248 -10 -295 -49 -45 -53 -45 -212 -18 -35 6 -66 7 -70 3 -9 -9 42 -50 96
-76 116 -57 353 -34 471 45 107 72 124 182 34 217 -60 23 -122 3 -195 -61
l-43 -37 -2 67 c-1 38 -11 121 -22 185 -19 108 -19 119 -4 150 15 32 15 34
-13 69 -35 44 -49 45 -69 6z m328 -472 c9 -5 17 -13 17 -17 0 -25 -129 -75
-220 -86 l-55 -7 50 46 c87 79 144 97 208 64z"/>
<path d="M3634 10194 c-7 -46 -2 -71 71 -419 13 -66 25 -139 25 -162 0 -44 13
-64 24 -37 16 43 3 175 -41 411 -49 258 -65 300 -79 207z"/>
<path d="M8861 10188 c-101 -39 -136 -57 -144 -75 -5 -13 -8 -25 -5 -28 3 -3
71 20 152 52 127 51 146 61 146 81 0 12 -3 22 -7 22 -5 -1 -68 -24 -142 -52z"/>
<path d="M10206 10225 c-12 -33 -5 -113 20 -230 14 -66 34 -176 44 -244 11
-68 22 -126 25 -129 14 -14 20 19 19 111 0 76 -10 146 -37 277 -20 96 -37 186
-39 199 -4 29 -23 38 -32 16z"/>
<path d="M4965 10182 c-5 -36 4 -101 34 -257 22 -116 45 -243 51 -284 6 -40
13 -78 17 -83 12 -20 24 22 24 89 1 76 -8 129 -56 353 -18 85 -36 172 -39 193
-9 51 -23 46 -31 -11z"/>
<path d="M5464 10199 c-14 -29 -14 -35 0 -68 17 -40 53 -260 63 -379 l6 -78
-41 -32 c-34 -27 -48 -32 -93 -32 -30 0 -82 6 -117 14 -36 7 -65 9 -68 4 -10
-15 26 -46 85 -75 109 -54 322 -40 454 30 62 32 92 67 108 120 22 76 -17 117
-111 117 -55 0 -85 -15 -147 -74 l-33 -30 0 60 c-1 32 -12 115 -25 184 -21
110 -22 128 -9 147 8 12 14 29 14 38 0 17 -50 85 -62 85 -4 0 -15 -14 -24 -31z
m329 -480 c23 -13 15 -25 -34 -50 -44 -22 -179 -59 -213 -59 -17 1 -12 9 29
45 90 81 152 99 218 64z"/>
<path d="M3356 10189 c-28 -33 -26 -60 2 -36 25 21 49 27 72 19 19 -7 17 -10
-20 -31 -38 -21 -54 -51 -27 -51 41 1 147 72 147 99 0 13 -65 31 -112 31 -28
0 -42 -7 -62 -31z"/>
<path d="M4773 10208 c-31 -39 -35 -59 -17 -85 9 -15 25 -74 35 -132 10 -58
32 -164 49 -235 17 -71 29 -135 26 -143 -13 -33 -83 2 -111 56 -7 15 -27 81
-44 145 -16 65 -32 120 -36 124 -10 11 -25 -21 -25 -57 0 -18 7 -60 16 -93 14
-56 14 -62 -2 -79 -19 -21 -102 -49 -144 -49 -14 0 -32 6 -38 12 -10 10 -15
10 -22 -2 -27 -42 2 -100 50 -100 43 0 140 32 164 55 l24 22 16 -37 c23 -53
67 -91 113 -97 99 -13 108 103 32 399 -36 141 -39 169 -23 201 14 26 13 30
-16 67 -36 45 -34 44 -47 28z"/>
<path d="M4037 10152 c-87 -36 -108 -49 -113 -69 -4 -13 -5 -26 -3 -28 8 -7
244 96 257 112 34 47 -5 42 -141 -15z"/>
<path d="M9746 10169 c-29 -34 -42 -72 -31 -89 4 -6 18 -16 33 -21 l25 -10
-29 -30 c-16 -17 -48 -44 -71 -60 -46 -32 -54 -49 -24 -49 23 0 84 41 138 92
22 22 46 37 52 34 16 -11 25 22 13 47 -6 12 -13 37 -16 56 -12 68 -48 80 -90
30z m52 -60 c-2 -5 -12 -3 -23 5 -17 13 -18 17 -5 25 16 11 35 -10 28 -30z"/>
<path d="M10931 10159 c-106 -44 -121 -54 -121 -81 0 -23 5 -22 130 29 98 41
110 49 110 74 0 25 -10 24 -119 -22z"/>
<path d="M11356 10152 c-104 -38 -131 -52 -138 -71 -5 -13 -6 -26 -3 -29 5 -5
84 24 223 81 53 22 72 35 72 48 0 11 -6 19 -12 19 -7 -1 -71 -22 -142 -48z"/>
<path d="M5708 10089 c-86 -38 -117 -56 -122 -72 -3 -12 -3 -23 -1 -26 5 -5
234 87 253 102 6 5 12 18 12 28 0 11 -6 19 -12 19 -7 0 -65 -23 -130 -51z"/>
<path d="M2320 10079 c-131 -53 -154 -67 -148 -91 2 -12 30 -5 138 36 75 28
141 55 148 59 16 11 16 47 0 47 -7 -1 -69 -24 -138 -51z"/>
<path d="M2753 10101 c-29 -18 -51 -56 -40 -68 3 -3 16 2 29 11 24 17 64 21
72 8 3 -5 -13 -19 -34 -31 -51 -28 -52 -46 -4 -36 69 12 145 80 117 105 -6 6
-91 30 -105 30 -2 0 -17 -9 -35 -19z"/>
<path d="M11892 10104 c-5 -9 -7 -26 -4 -36 4 -16 1 -19 -14 -16 -11 2 -20 13
-22 26 -5 31 -21 27 -34 -8 -11 -33 -47 -60 -49 -38 -1 7 -1 18 0 25 1 6 -3
14 -8 18 -14 8 -33 -31 -29 -63 2 -23 8 -28 37 -30 18 -2 38 1 44 7 6 6 26 11
43 11 40 0 64 30 64 77 0 37 -15 51 -28 27z"/>
<path d="M4570 10081 c-16 -31 -12 -51 14 -63 32 -14 54 -5 62 27 11 45 -54
76 -76 36z"/>
<path d="M6123 10032 c-81 -33 -113 -51 -117 -65 -3 -11 -3 -24 -1 -28 5 -7
213 75 228 90 5 5 7 18 5 29 -3 18 -10 17 -115 -26z"/>
<path d="M8554 10045 c-16 -25 -17 -25 -42 -9 -25 16 -26 16 -49 -10 -30 -35
-29 -42 10 -66 l32 -20 21 23 c19 23 22 23 49 9 27 -14 30 -13 47 8 25 31 20
50 -19 73 l-32 18 -17 -26z"/>
<path d="M9383 10035 c-35 -35 -38 -72 -4 -41 10 9 35 16 57 16 l39 -1 -48
-25 c-27 -14 -46 -30 -44 -37 12 -33 149 29 155 70 3 18 -5 24 -51 37 -30 9
-58 16 -62 16 -4 0 -23 -16 -42 -35z"/>
<path d="M3201 10001 c-108 -46 -131 -61 -131 -88 0 -20 12 -16 133 34 129 54
137 59 137 84 0 26 -9 24 -139 -30z"/>
<path d="M3429 10023 c-7 -16 -15 -31 -16 -34 -4 -7 43 -29 62 -29 8 0 21 13
29 29 15 28 14 30 -9 45 -34 23 -50 20 -66 -11z"/>
<path d="M7880 9986 c-95 -38 -105 -45 -108 -70 -3 -25 -1 -27 20 -21 21 7
201 85 204 88 1 1 5 12 8 25 10 30 2 28 -124 -22z"/>
<path d="M11119 9994 c-11 -13 -8 -25 19 -74 25 -45 32 -69 32 -114 0 -54 11
-73 24 -40 3 9 6 45 6 80 0 49 -6 77 -25 114 -27 54 -35 59 -56 34z"/>
<path d="M8890 9976 c-12 -23 -14 -24 -36 -9 -29 19 -50 12 -66 -23 -11 -23
-9 -28 12 -45 32 -24 57 -24 70 1 10 19 13 19 40 5 27 -14 30 -14 49 11 27 34
27 39 -8 63 -37 27 -45 26 -61 -3z"/>
<path d="M4046 9922 c-16 -32 -12 -43 23 -62 22 -11 27 -10 43 10 24 29 23 46
-4 64 -32 23 -45 20 -62 -12z"/>
<path d="M4356 9934 c-10 -27 -7 -62 11 -99 9 -19 14 -38 10 -42 -4 -3 -31 -8
-61 -11 -53 -4 -55 -3 -71 27 -9 18 -22 31 -28 28 -22 -7 -19 -59 7 -117 39
-86 35 -119 -18 -168 -90 -83 -219 -83 -262 0 -13 25 -15 47 -10 105 7 80 -5
99 -24 36 -39 -133 -16 -234 62 -272 122 -59 282 15 307 143 6 28 12 67 13 86
3 33 6 35 48 42 67 11 85 36 84 111 -1 61 -18 111 -47 135 -12 10 -16 9 -21
-4z"/>
<path d="M5897 9931 c-2 -11 8 -45 24 -77 20 -39 29 -72 29 -105 0 -26 5 -51
10 -54 17 -10 32 47 28 102 -8 90 -76 191 -91 134z"/>
<path d="M2349 9908 c-6 -13 -13 -24 -14 -26 -2 -2 -15 4 -30 14 -27 18 -28
18 -51 -10 -31 -35 -30 -42 6 -61 37 -19 50 -19 65 2 11 15 17 16 41 4 26 -11
30 -10 46 9 25 31 22 55 -9 71 -16 7 -31 15 -35 17 -4 2 -12 -7 -19 -20z"/>
<path d="M3511 9881 c-17 -31 -14 -46 25 -115 19 -36 33 -70 29 -75 -10 -17
-81 -34 -110 -27 -26 7 -26 8 -11 31 35 53 7 99 -68 110 -79 12 -131 -17 -151
-84 -7 -22 -5 -23 26 -18 19 3 43 2 54 -3 18 -7 17 -9 -15 -23 -57 -25 -156
-40 -223 -35 -77 6 -134 34 -179 88 -19 22 -41 40 -49 40 -8 0 -37 -22 -64
-50 -66 -67 -106 -86 -143 -67 -15 7 -25 20 -23 28 10 35 13 69 6 69 -4 0 -24
-15 -45 -34 -64 -58 -198 -96 -340 -96 -88 0 -134 15 -165 52 -22 26 -26 39
-23 72 3 23 6 46 9 51 10 23 -15 18 -34 -7 -14 -18 -22 -48 -25 -85 -3 -48 0
-64 20 -93 39 -59 86 -75 213 -74 120 1 205 19 287 60 l49 25 30 -26 c49 -41
74 -42 119 -7 35 29 39 30 52 15 18 -22 87 -53 120 -53 15 0 31 7 36 16 8 14
13 14 62 0 30 -9 74 -16 99 -16 64 0 173 25 235 53 l52 24 34 -24 c29 -20 44
-24 89 -20 46 3 59 9 84 37 28 32 29 36 25 105 -4 55 -11 84 -32 118 -32 57
-42 63 -55 38z m-666 -201 c18 -34 18 -34 -24 -19 -34 12 -37 19 -19 37 18 18
26 15 43 -18z"/>
<path d="M6574 9801 c-22 -15 -53 -43 -68 -62 -16 -19 -46 -49 -67 -67 l-38
-32 -41 16 c-31 13 -40 21 -37 34 9 35 -8 43 -49 22 -22 -10 -70 -29 -108 -42
l-68 -22 6 -53 c5 -47 3 -56 -23 -92 -67 -93 -162 -123 -277 -88 -30 9 -52 11
-58 5 -28 -28 95 -82 189 -83 63 0 123 22 157 60 24 26 56 101 63 149 7 38 9
41 68 61 l60 21 19 -21 c18 -22 19 -53 2 -116 -6 -19 -3 -22 12 -19 12 2 22
18 30 43 l11 40 94 1 c176 2 279 67 302 192 15 79 -98 113 -179 53z m110 -57
c26 -10 19 -23 -30 -54 -48 -30 -135 -55 -169 -49 -16 4 -8 14 43 57 52 43 70
52 102 52 21 0 45 -3 54 -6z"/>
<path d="M6576 9469 c-71 -27 -135 -54 -143 -60 -13 -11 -19 -49 -7 -49 11 0
269 104 282 113 13 10 17 47 5 46 -5 0 -66 -23 -137 -50z"/>
<path d="M11985 9486 c-33 -12 -95 -35 -138 -50 -61 -22 -81 -34 -88 -54 -5
-13 -8 -27 -5 -29 3 -4 287 104 292 110 8 10 13 47 7 47 -4 -1 -35 -11 -68
-24z"/>
<path d="M4389 9480 c-13 -19 -17 -19 -47 -8 -30 12 -35 11 -48 -7 -20 -28
-14 -53 18 -73 27 -16 29 -16 50 5 19 20 24 21 49 8 25 -14 28 -13 43 10 22
34 20 50 -9 69 -32 21 -40 20 -56 -4z"/>
<path d="M4636 9429 c-55 -22 -106 -45 -113 -51 -11 -9 -19 -48 -9 -48 8 0 85
29 159 60 66 27 77 35 77 56 0 13 -3 24 -7 24 -5 -1 -53 -19 -107 -41z"/>
<path d="M8158 9449 c-12 -18 -17 -20 -35 -10 -33 17 -49 13 -61 -14 -18 -38
-15 -44 23 -62 34 -16 36 -16 51 5 14 21 17 21 44 7 28 -14 29 -14 51 17 l23
31 -30 23 c-36 29 -48 30 -66 3z"/>
<path d="M8551 9425 c-127 -51 -141 -60 -141 -86 0 -24 0 -24 145 33 97 38
125 57 125 85 0 19 -13 16 -129 -32z"/>
<path d="M8056 8929 c-41 -48 -28 -68 20 -30 15 12 33 17 50 13 25 -5 25 -6
-21 -34 -57 -36 -50 -56 13 -38 40 10 112 67 112 87 0 13 -68 33 -113 33 -27
0 -41 -7 -61 -31z"/>
<path d="M8404 8938 c-12 -13 -29 -35 -39 -50 -14 -22 -21 -26 -35 -18 -15 8
-22 5 -38 -18 -24 -35 -34 -61 -26 -74 3 -5 13 0 21 12 13 18 22 21 49 15 75
-14 160 55 152 123 -4 37 -54 43 -84 10z m46 -48 c0 -4 -14 -13 -32 -19 l-32
-11 24 25 c21 23 40 25 40 5z"/>
<path d="M4431 8826 c-97 -38 -138 -59 -145 -75 -5 -12 -7 -23 -4 -26 6 -6
267 92 286 107 13 11 17 48 5 48 -5 -1 -69 -25 -142 -54z"/>
<path d="M10795 8810 c-49 -22 -96 -39 -102 -40 -13 0 -30 -47 -21 -56 3 -2
56 17 119 44 92 38 115 52 117 70 5 30 -8 28 -113 -18z"/>
<path d="M6987 8799 c-21 -12 -47 -61 -47 -89 0 -12 12 -28 31 -39 l30 -19
-48 -40 c-26 -23 -59 -50 -73 -61 -14 -10 -22 -23 -17 -27 12 -12 94 33 145
80 26 24 52 41 59 39 15 -5 27 35 15 50 -5 7 -13 30 -17 52 -11 62 -35 79 -78
54z m37 -64 c4 -10 -1 -15 -14 -15 -11 0 -20 7 -20 15 0 8 6 15 14 15 8 0 16
-7 20 -15z"/>
<path d="M8140 8780 c-7 -16 -10 -42 -6 -57 8 -38 83 -401 90 -436 5 -25 2
-30 -29 -43 -84 -35 -189 -11 -247 57 -50 57 -65 55 -120 -17 -53 -70 -92 -94
-155 -94 -27 0 -52 3 -56 6 -3 3 3 20 14 37 29 48 25 93 -9 111 -44 23 -95 29
-140 16 -46 -12 -68 -37 -78 -89 -7 -33 -6 -34 21 -27 28 7 85 -9 85 -24 0 -9
-31 -20 -110 -41 -49 -12 -150 -28 -150 -22 0 2 9 20 20 40 45 84 36 143 -25
163 -62 20 -93 7 -216 -95 -124 -103 -143 -110 -209 -77 -29 14 -34 22 -32 45
2 15 0 27 -4 27 -3 0 -34 -14 -68 -30 -34 -17 -77 -33 -97 -36 -34 -6 -35 -5
-58 51 -13 31 -34 63 -47 72 -22 14 -26 14 -50 -2 -36 -24 -68 -98 -60 -144 7
-48 37 -71 93 -71 l45 0 -19 -30 c-34 -53 -92 -108 -140 -132 -41 -19 -64 -23
-150 -24 -57 0 -103 -4 -104 -10 -2 -16 73 -36 158 -41 132 -9 192 24 247 132
13 28 27 62 31 76 5 21 17 29 63 44 31 9 68 23 82 30 23 12 28 10 62 -25 l38
-38 -15 -42 c-32 -90 -8 -111 29 -27 l23 53 150 -4 c202 -6 412 24 517 75 33
15 35 15 68 -11 59 -44 169 -26 213 36 11 16 18 19 23 11 11 -17 69 -40 124
-48 40 -6 47 -4 52 12 5 16 14 18 76 15 91 -5 137 4 166 33 21 21 24 33 24 99
0 66 -31 246 -59 343 -7 24 -6 35 5 44 8 6 14 17 14 25 0 11 -59 114 -65 114
-2 0 -8 -13 -15 -30z m-231 -526 c18 -30 19 -35 6 -30 -9 3 -22 6 -28 6 -7 0
-19 4 -27 10 -12 7 -12 12 4 29 11 12 20 21 22 21 1 0 12 -16 23 -36z m-700
15 c17 -6 31 -15 31 -20 0 -27 -161 -89 -229 -89 l-36 1 35 30 c101 89 132
101 199 78z m-715 -54 c16 -24 16 -25 -6 -25 -13 0 -29 4 -37 9 -12 8 -12 12
-2 25 18 22 26 20 45 -9z"/>
<path d="M9291 8715 c-146 -50 -170 -64 -171 -92 0 -20 19 -16 185 41 150 51
174 65 175 94 0 20 -27 14 -189 -43z"/>
<path d="M8336 8721 c-3 -21 1 -77 9 -122 41 -225 53 -300 60 -372 11 -113 41
-90 44 34 1 47 -19 177 -61 387 -23 117 -41 142 -52 73z"/>
<path d="M7406 8709 c-40 -48 -33 -62 18 -35 27 14 70 11 61 -4 -2 -4 -18 -13
-34 -20 -16 -6 -32 -19 -35 -27 -10 -24 61 -8 109 25 55 38 57 65 7 80 -66 20
-97 15 -126 -19z"/>
<path d="M4436 8694 c-11 -28 -6 -106 15 -244 33 -215 33 -224 14 -243 -29
-29 -121 -14 -109 18 3 8 3 22 0 32 -6 14 -9 13 -27 -6 -42 -45 -179 -86 -327
-97 l-77 -7 36 39 c50 53 69 94 69 147 0 59 -26 93 -63 83 -30 -7 -63 -63 -93
-158 -15 -51 -22 -59 -53 -70 -21 -7 -85 -13 -151 -13 -162 0 -214 23 -281
125 -15 23 -18 24 -43 11 -54 -29 -86 -126 -53 -160 17 -18 -37 -64 -148 -126
-47 -26 -88 -52 -91 -56 -10 -17 45 -9 111 15 84 31 139 67 156 104 l12 28 54
-15 c42 -11 59 -12 73 -3 12 7 29 8 52 2 58 -15 151 -20 209 -12 46 7 56 6 52
-5 -4 -10 7 -13 40 -13 43 0 45 -2 51 -32 14 -75 79 -138 142 -138 48 0 68 30
72 111 4 65 6 70 31 75 63 13 168 47 188 60 15 10 24 11 29 3 4 -6 26 -20 49
-30 50 -22 86 -14 106 23 6 13 13 24 14 26 1 1 20 -15 42 -37 26 -26 52 -42
78 -47 47 -8 134 8 201 37 63 28 144 104 144 135 0 30 -5 30 -46 -1 -47 -36
-113 -65 -151 -65 -23 0 -38 8 -57 31 -39 46 -44 78 -15 100 39 31 121 51 154
39 33 -12 43 -6 29 18 -17 27 -55 42 -106 42 -39 0 -54 -6 -82 -30 -57 -51
-79 -138 -51 -202 11 -27 -18 -23 -54 8 -43 36 -72 147 -112 432 -11 80 -20
99 -33 66z m-448 -381 c2 -14 -11 -32 -40 -57 -47 -41 -58 -35 -32 16 34 67
66 85 72 41z m-609 -84 c6 -18 11 -33 11 -35 0 -7 -60 19 -66 27 -7 12 14 39
31 39 7 0 18 -14 24 -31z m636 -188 l40 -17 -26 -17 c-21 -14 -32 -15 -55 -7
-31 12 -74 48 -74 62 0 12 66 0 115 -21z"/>
<path d="M4696 8647 c-118 -48 -161 -75 -144 -93 9 -8 266 86 285 104 16 17
17 42 1 42 -7 -1 -71 -24 -142 -53z"/>
<path d="M7857 8643 c-125 -51 -172 -81 -153 -100 8 -9 287 99 293 113 3 7 3
19 1 27 -2 12 -33 3 -141 -40z"/>
<path d="M10794 8674 c-9 -34 9 -210 35 -344 14 -70 16 -100 8 -117 -13 -28
-46 -38 -84 -26 -22 7 -29 17 -31 41 -2 18 -5 32 -7 32 -2 0 -18 -13 -35 -28
-45 -42 -208 -92 -298 -92 -24 0 -23 1 12 41 45 49 57 79 58 140 1 141 -96
110 -145 -47 l-25 -79 -48 -17 c-61 -21 -155 -23 -221 -3 -50 15 -81 39 -135
104 -27 32 -28 32 -56 15 -55 -32 -76 -93 -51 -148 10 -22 8 -28 -17 -50 -16
-14 -71 -49 -121 -78 -99 -57 -121 -84 -55 -67 113 29 190 72 222 125 l21 33
41 -15 c46 -16 85 -18 90 -5 2 5 33 3 72 -6 53 -12 82 -13 123 -6 42 8 53 7
53 -4 0 -8 13 -13 39 -13 37 0 40 -2 65 -55 35 -71 76 -105 127 -105 53 0 74
32 74 116 0 62 0 62 31 67 18 3 58 18 89 32 l57 27 39 -21 c55 -31 97 -25 125
17 21 30 23 31 29 12 10 -30 65 -68 111 -76 120 -19 342 102 332 181 l-3 28
-31 -26 c-39 -33 -131 -77 -162 -77 -29 0 -79 48 -88 85 -6 24 -2 32 21 51 37
29 107 46 152 38 43 -8 42 8 -1 40 -38 29 -111 28 -152 -1 -57 -41 -88 -135
-64 -197 8 -22 7 -26 -9 -26 -20 0 -52 32 -74 75 -24 47 -37 108 -63 279 -24
164 -37 202 -50 150z m-376 -367 c2 -11 -11 -32 -33 -53 -60 -56 -73 -41 -29
33 26 46 55 55 62 20z m-560 -89 c6 -17 11 -33 9 -34 -1 -1 -17 4 -35 12 -29
12 -32 16 -22 34 16 29 34 25 48 -12z m536 -173 c73 -19 80 -23 65 -41 -25
-31 -106 -7 -130 37 -12 23 -9 23 65 4z"/>
<path d="M11110 8639 c-153 -60 -154 -61 -158 -88 -2 -11 -2 -21 0 -21 3 0 87
30 206 75 69 26 105 57 85 75 -4 4 -64 -14 -133 -41z"/>
<path d="M8808 8660 c-26 -20 -44 -60 -27 -60 5 0 21 7 34 16 16 11 34 14 52
9 l27 -6 -39 -22 c-49 -28 -60 -53 -19 -43 78 19 146 69 129 96 -7 12 -71 30
-106 30 -15 0 -38 -9 -51 -20z"/>
<path d="M9805 8579 c-28 -16 -45 -40 -45 -62 0 -18 2 -19 18 -5 25 22 49 28
72 20 19 -7 18 -9 -15 -25 -33 -16 -54 -41 -43 -52 8 -8 70 14 104 37 18 12
38 33 43 46 9 20 8 24 -15 32 -43 17 -98 21 -119 9z"/>
<path d="M9285 8551 c-14 -28 -14 -31 7 -45 30 -22 44 -20 62 6 22 31 20 43
-9 56 -37 17 -43 15 -60 -17z"/>
<path d="M10573 8565 c-31 -13 -63 -58 -50 -71 3 -3 16 1 29 10 24 17 78 22
78 8 0 -5 -18 -17 -40 -27 -52 -24 -55 -50 -4 -40 69 12 145 81 117 104 -7 7
-84 32 -94 31 -2 -1 -19 -7 -36 -15z"/>
<path d="M3295 8545 c-25 -24 -33 -55 -16 -55 5 0 14 7 21 15 13 15 70 21 70
7 0 -4 -16 -16 -35 -26 -48 -26 -47 -49 3 -40 56 10 122 59 122 90 0 15 -60
34 -108 34 -22 0 -41 -8 -57 -25z"/>
<path d="M4189 8547 c-19 -15 -43 -57 -35 -64 2 -3 15 2 28 11 23 16 59 21 71
9 4 -3 -9 -16 -30 -27 -20 -12 -38 -27 -41 -35 -7 -22 67 -4 113 27 52 36 57
66 14 81 -42 14 -100 14 -120 -2z"/>
<path d="M7476 8528 c-24 -34 -19 -56 14 -73 30 -15 30 -15 49 17 23 36 21 42
-19 63 -27 14 -30 14 -44 -7z"/>
<path d="M6986 8478 c-22 -31 -20 -43 9 -56 38 -17 50 -15 65 13 12 22 11 27
-5 45 -24 26 -50 25 -69 -2z"/>
<path d="M6156 8414 c-12 -31 -6 -55 24 -96 17 -22 30 -44 30 -48 0 -13 -93
-47 -185 -68 -147 -34 -284 -45 -475 -39 -198 6 -284 23 -409 82 -40 19 -77
35 -82 35 -35 0 50 -95 118 -132 106 -58 313 -83 546 -67 237 15 416 61 482
123 33 31 35 37 35 97 0 44 -5 72 -17 89 -29 43 -56 52 -67 24z"/>
<path d="M9320 8388 c-49 -33 -82 -102 -77 -158 2 -25 7 -52 11 -61 8 -19 -34
-29 -124 -29 -123 0 -162 32 -200 160 -34 112 -50 126 -66 58 -11 -51 -58 -88
-110 -88 -32 0 -34 -2 -34 -36 0 -27 5 -37 20 -41 27 -7 25 -20 -13 -83 -60
-101 -176 -146 -308 -121 -34 7 -67 15 -75 18 -8 3 -14 -1 -14 -11 0 -49 249
-98 318 -62 65 34 152 162 152 223 0 21 35 63 52 63 4 0 14 12 21 26 l14 27 7
-44 c4 -24 15 -62 26 -85 26 -59 63 -77 176 -82 76 -4 109 0 193 22 172 44
291 110 291 161 l0 24 -75 -35 c-96 -46 -141 -53 -177 -25 -14 11 -31 34 -37
51 -9 29 -8 32 27 54 48 32 101 41 147 26 20 -7 39 -9 42 -6 18 18 -78 75
-128 76 -14 0 -41 -10 -59 -22z"/>
<path d="M10720 8000 c-10 -19 -13 -19 -40 -5 -27 14 -30 14 -49 -11 -29 -37
-26 -52 14 -71 33 -16 35 -16 52 6 17 20 21 21 47 10 26 -12 30 -11 47 10 26
32 24 48 -11 66 -38 20 -47 19 -60 -5z"/>
<path d="M4318 7988 c-14 -22 -16 -22 -41 -5 -25 16 -27 16 -47 -5 -30 -32
-25 -56 15 -75 33 -16 35 -16 53 7 15 19 22 21 40 11 31 -17 40 -14 57 18 14
28 14 31 -11 50 -34 27 -48 26 -66 -1z"/>
<path d="M5735 7970 c-20 -38 -20 -37 17 -56 30 -16 32 -15 49 7 24 32 24 45
-3 63 -32 23 -45 20 -63 -14z"/>
<path d="M8936 7975 c-16 -24 -18 -24 -42 -9 -23 16 -26 15 -44 -1 -25 -22
-26 -53 -2 -71 25 -19 50 -17 64 5 11 18 14 18 42 4 28 -15 31 -14 48 7 25 31
23 45 -11 69 -36 26 -35 26 -55 -4z"/>
<path d="M5786 7850 c-155 -55 -199 -82 -182 -109 6 -9 282 80 332 107 24 13
38 49 20 54 -6 3 -83 -21 -170 -52z"/>
<path d="M8620 7845 c-124 -48 -135 -54 -138 -80 -4 -32 -16 -34 157 34 117
46 149 68 134 94 -6 10 -2 11 -153 -48z"/>
<path d="M3990 7816 c-102 -40 -138 -59 -147 -77 -8 -15 -9 -25 -3 -27 17 -6
274 98 288 115 13 19 16 43 5 43 -5 -1 -69 -25 -143 -54z"/>
<path d="M10406 7781 c-79 -34 -111 -53 -117 -69 -11 -30 -4 -29 123 20 74 29
110 48 114 61 12 37 -12 35 -120 -12z"/>
<path d="M7125 7488 c-2 -7 -5 -22 -7 -33 -4 -27 -32 -25 -36 3 -5 31 -16 28
-33 -10 -16 -38 -49 -51 -49 -19 0 32 -19 35 -31 4 -17 -45 -4 -73 34 -73 18
0 39 6 45 12 7 7 28 11 47 9 32 -2 37 1 50 33 9 20 13 47 9 61 -7 27 -22 33
-29 13z"/>
<path d="M8585 7490 c-12 -4 -34 -26 -49 -49 -22 -32 -35 -41 -57 -41 -21 0
-32 -7 -44 -30 -17 -33 -20 -60 -5 -60 5 0 13 8 18 17 7 12 24 17 64 17 43 1
62 7 90 28 35 27 57 76 43 98 -11 18 -40 28 -60 20z m20 -60 c3 -5 -8 -16 -25
-25 -33 -17 -39 -11 -13 17 18 20 29 23 38 8z"/>
<path d="M9130 7409 c-132 -53 -156 -68 -147 -93 5 -13 11 -12 44 4 21 10 81
33 133 51 108 37 120 44 120 70 0 11 -6 19 -12 19 -7 -1 -69 -23 -138 -51z"/>
<path d="M7431 7403 c-53 -36 -106 -47 -159 -32 -41 11 -46 11 -59 -7 -17 -24
-28 -63 -19 -72 4 -4 15 3 24 16 16 20 21 21 51 11 70 -25 208 36 200 87 -4
20 -4 20 -38 -3z"/>
<path d="M5165 7360 c-21 -22 -54 -45 -72 -51 -25 -8 -32 -15 -28 -28 4 -12
-4 -22 -27 -33 -144 -70 -216 -247 -156 -380 31 -67 79 -123 138 -160 25 -16
45 -36 45 -46 0 -10 13 -21 33 -28 18 -5 52 -30 76 -53 l45 -44 40 32 c23 18
41 36 41 40 0 5 19 15 41 24 30 12 40 21 36 32 -5 10 6 21 33 35 48 25 115 92
143 145 32 59 31 192 -1 255 -30 57 -75 105 -129 136 -25 15 -43 34 -45 46 -2
15 -13 24 -33 30 -17 4 -48 26 -70 48 -21 22 -46 40 -55 40 -9 0 -33 -18 -55
-40z m-45 -125 c10 -12 8 -16 -15 -25 -56 -21 -116 -72 -145 -123 -34 -59 -41
-142 -16 -201 21 -51 80 -110 135 -136 48 -23 60 -50 22 -50 -27 0 -104 53
-144 100 -114 133 -74 328 87 420 59 35 60 35 76 15z m276 -15 c211 -120 203
-393 -14 -504 -33 -17 -62 -16 -62 2 0 4 16 16 35 25 49 24 113 84 137 131 28
55 28 139 -1 200 -26 52 -88 110 -138 128 -31 11 -41 27 -26 41 10 10 14 9 69
-23z m-71 -37 c31 -10 67 -34 96 -63 91 -91 91 -207 -1 -298 -42 -43 -73 -58
-143 -71 -123 -23 -235 26 -302 131 -25 40 -24 132 3 184 56 110 213 163 347
117z"/>
<path d="M5286 7037 c-7 -19 -17 -43 -20 -55 -4 -12 -10 -22 -14 -22 -4 0 -22
23 -40 50 -17 28 -38 50 -46 50 -30 0 -26 -33 10 -87 20 -30 43 -73 52 -94 19
-49 38 -50 47 -2 4 20 18 65 32 100 24 60 25 93 3 93 -5 0 -16 -15 -24 -33z"/>
<path d="M7860 7304 c-96 -34 -162 -62 -172 -75 -22 -25 -23 -39 -4 -39 16 0
300 96 327 111 18 9 28 60 12 58 -5 0 -78 -25 -163 -55z"/>
<path d="M7050 7298 c-18 -30 -18 -32 -1 -67 10 -20 22 -61 26 -91 4 -30 22
-129 40 -220 24 -117 30 -168 23 -177 -26 -32 -94 0 -123 57 -8 16 -22 61 -30
100 -8 39 -20 81 -26 92 -11 20 -13 19 -33 -23 -16 -33 -30 -47 -60 -58 -33
-13 -39 -13 -47 0 -26 43 -28 45 -39 29 -15 -23 -12 -60 10 -117 l20 -52 -26
-31 c-67 -79 -228 -128 -450 -137 -278 -11 -479 34 -651 148 -33 21 -33 21
-33 1 0 -11 18 -43 40 -70 82 -104 291 -171 535 -172 181 0 363 33 463 84 87
45 152 133 152 206 0 26 4 30 25 30 15 0 36 11 50 26 27 29 26 30 45 -50 24
-106 66 -156 131 -156 48 0 78 25 89 75 12 51 7 93 -37 294 -31 143 -34 168
-24 197 11 30 10 38 -8 63 -12 16 -21 34 -21 40 0 21 -21 11 -40 -21z"/>
<path d="M8255 7280 c-11 -21 -12 -35 -5 -52 17 -39 91 -428 84 -440 -8 -13
-98 -53 -141 -62 l-33 -8 15 36 c22 52 19 99 -7 123 -60 53 -95 41 -228 -78
-61 -55 -113 -99 -116 -99 -4 0 -33 12 -66 27 -49 22 -63 24 -77 15 -77 -57
-170 -75 -237 -47 -50 21 -69 71 -93 261 -23 174 -45 302 -55 311 -12 12 -27
-54 -21 -92 3 -22 15 -114 25 -205 30 -264 48 -316 120 -352 61 -31 184 -15
243 32 25 20 28 20 57 5 35 -18 35 -20 15 -68 -8 -20 -15 -46 -15 -58 0 -35
22 -16 42 38 l20 50 161 6 c167 6 249 20 338 59 96 41 110 123 62 355 -24 113
-26 137 -15 165 11 29 9 36 -14 70 -15 21 -30 38 -35 38 -5 0 -15 -13 -24 -30z
m-116 -475 c29 -28 -120 -105 -203 -105 l-30 0 44 45 c75 77 147 99 189 60z"/>
<path d="M9127 7275 c-15 -32 -15 -39 -3 -63 20 -39 40 -222 32 -296 -13 -113
-13 -113 -60 -48 -78 105 -314 302 -362 302 -17 0 -19 -57 -3 -113 9 -32 18
-42 56 -59 25 -11 54 -17 66 -14 37 9 257 -192 257 -236 0 -27 -77 -105 -110
-111 -28 -6 -30 -10 -30 -48 l0 -41 54 6 c57 8 155 31 164 40 9 10 4 94 -8
131 -9 28 -8 49 4 105 10 44 16 117 16 204 0 76 5 146 11 159 9 20 6 30 -15
62 -14 21 -26 42 -26 46 0 23 -28 5 -43 -26z m26 -589 c7 -18 -1 -26 -25 -26
-16 0 -16 3 -6 20 15 24 24 25 31 6z"/>
<path d="M8504 7254 c-9 -47 -3 -95 41 -314 20 -102 39 -213 42 -248 6 -64 18
-85 35 -61 15 22 1 195 -26 319 -14 63 -36 166 -48 228 -13 61 -26 112 -30
112 -4 0 -10 -16 -14 -36z"/>
<path d="M7936 7185 c-3 -9 -6 -26 -6 -37 0 -27 -24 -18 -28 11 -4 28 -22 23
-42 -15 -22 -39 -50 -44 -50 -10 0 29 -14 35 -24 10 -23 -61 13 -110 59 -80
14 9 40 16 58 16 43 0 60 20 61 72 1 42 -16 62 -28 33z"/>
<path d="M9451 7085 c-91 -37 -126 -57 -132 -73 -5 -12 -5 -23 -1 -26 4 -2 64
18 134 46 106 43 127 55 131 75 2 13 2 25 -2 27 -3 2 -62 -20 -130 -49z"/>
<path d="M6332 7073 c-113 -41 -158 -62 -169 -80 -9 -13 -13 -26 -10 -29 3 -3
82 20 177 51 147 49 173 61 181 82 5 13 9 26 9 29 0 11 -48 -2 -188 -53z"/>
<path d="M7869 6984 c-12 -24 -12 -28 10 -45 30 -25 48 -21 69 13 16 26 15 28
-3 42 -31 23 -60 19 -76 -10z"/>
<path d="M6356 6865 c-22 -34 -20 -50 9 -63 36 -17 38 -16 58 17 18 31 15 36
-29 59 -19 10 -24 8 -38 -13z"/>
<path d="M9455 6856 c-13 -13 -29 -43 -35 -67 -24 -89 10 -155 77 -147 18 2
33 3 33 1 0 -14 -59 -87 -86 -108 -58 -44 -109 -57 -219 -53 -81 2 -100 0
-100 -11 0 -20 68 -41 156 -48 135 -10 224 39 277 156 47 102 27 256 -37 291
-29 15 -39 13 -66 -14z m59 -117 c-9 -15 -44 -10 -50 6 -4 8 0 22 7 31 12 14
15 14 31 -6 10 -12 15 -26 12 -31z"/>
<path d="M6920 6613 c0 -5 -7 -16 -14 -26 -14 -18 -15 -18 -41 -1 -27 18 -28
17 -46 -5 -28 -34 -23 -55 16 -74 33 -16 35 -16 49 5 13 19 19 20 41 10 36
-17 38 -16 58 17 22 38 23 36 -17 60 -36 22 -46 25 -46 14z"/>
<path d="M7225 6548 c-11 -7 -65 -31 -120 -53 -79 -33 -101 -46 -103 -63 -2
-12 0 -22 4 -22 22 0 241 94 252 108 27 35 8 53 -33 30z"/>
</g>
</svg>
